<svg width="108" height="52" viewBox="0 0 108 52" fill="none" xmlns="http://www.w3.org/2000/svg">
<circle cx="20.1708" cy="25.9391" r="20.1463" fill="#FFCA28"/>
<path d="M25.1422 30.8918L25.1422 21.253L15.5034 21.253L15.4984 23.295L21.6245 23.2901L14.1768 30.7378L15.6574 32.2184L23.1051 24.7707L23.1051 30.9018L25.1422 30.8918Z" fill="black"/>
<path d="M59.289 5.53965H54.8338L52.2435 6.67935V11.2036L54.4884 10.3748V29.439H59.289V5.53965ZM62.5956 27.7121C63.5972 28.6101 65.6348 29.8879 68.9158 29.8879C74.9597 29.8879 77.2391 26.1235 77.2391 21.1502V12.9305C77.2391 8.19896 74.7525 5.09067 69.4684 5.09067C64.3915 5.09067 61.8013 8.54433 61.8013 12.9305V13.9666C61.8013 19.078 64.0807 21.7373 68.7086 21.7373C70.5736 21.7373 71.9896 20.943 72.4385 20.3213V21.2883C72.5076 23.5677 71.6442 25.3636 68.8122 25.3636C66.9818 25.3636 65.9111 24.5693 65.2204 24.0513L62.5956 27.7121ZM69.5029 17.2821C67.4307 17.2821 66.5328 15.9352 66.5328 13.9666V12.9305C66.5328 11.031 67.3962 9.58043 69.4684 9.58043C71.5751 9.58043 72.4731 10.9964 72.4731 12.9305V14.0702C72.4385 15.9006 71.5751 17.2821 69.5029 17.2821ZM81.492 29.8189C83.1843 29.8189 84.4276 28.5065 84.4276 26.8487C84.4276 25.1564 83.1843 23.8786 81.492 23.8786C79.7997 23.8786 78.5564 25.1564 78.5564 26.8487C78.5564 28.5065 79.8342 29.8189 81.492 29.8189ZM85.7999 27.7121C86.8014 28.6101 88.8391 29.8879 92.1201 29.8879C98.164 29.8879 100.443 26.1235 100.443 21.1502V12.9305C100.443 8.19896 97.9568 5.09067 92.6727 5.09067C87.5958 5.09067 85.0055 8.54433 85.0055 12.9305V13.9666C85.0055 19.078 87.285 21.7373 91.9129 21.7373C93.7778 21.7373 95.1938 20.943 95.6428 20.3213V21.2883C95.7119 23.5677 94.8485 25.3636 92.0165 25.3636C90.186 25.3636 89.1154 24.5693 88.4247 24.0513L85.7999 27.7121ZM92.7072 17.2821C90.635 17.2821 89.7371 15.9352 89.7371 13.9666V12.9305C89.7371 11.031 90.6005 9.58043 92.6727 9.58043C94.7794 9.58043 95.6773 10.9964 95.6773 12.9305V14.0702C95.6428 15.9006 94.7794 17.2821 92.7072 17.2821ZM52.7121 46.439V40.1596H53.6442V41.1407H53.726C53.8568 40.8055 54.068 40.5452 54.3597 40.3599C54.6513 40.1718 55.0015 40.0778 55.4103 40.0778C55.8246 40.0778 56.1693 40.1718 56.4446 40.3599C56.7226 40.5452 56.9393 40.8055 57.0946 41.1407H57.16C57.3208 40.8164 57.562 40.5589 57.8836 40.3681C58.2052 40.1746 58.5909 40.0778 59.0406 40.0778C59.602 40.0778 60.0612 40.2536 60.4183 40.6052C60.7753 40.954 60.9538 41.4978 60.9538 42.2364V46.439H59.989V42.2364C59.989 41.773 59.8623 41.4419 59.6088 41.2429C59.3554 41.044 59.0569 40.9445 58.7135 40.9445C58.272 40.9445 57.93 41.0781 57.6874 41.3451C57.4448 41.6095 57.3236 41.9447 57.3236 42.3508V46.439H56.3424V42.1382C56.3424 41.7812 56.2266 41.4937 55.9949 41.2756C55.7633 41.0549 55.4648 40.9445 55.0996 40.9445C54.8489 40.9445 54.6145 41.0113 54.3965 41.1448C54.1811 41.2784 54.0067 41.4637 53.8732 41.7008C53.7424 41.9352 53.6769 42.2064 53.6769 42.5144V46.439H52.7121ZM62.7017 46.439V40.1596H63.6338V41.1407H63.7156C63.8464 40.8055 64.0576 40.5452 64.3493 40.3599C64.6409 40.1718 64.9911 40.0778 65.3999 40.0778C65.8142 40.0778 66.1589 40.1718 66.4342 40.3599C66.7122 40.5452 66.9289 40.8055 67.0842 41.1407H67.1496C67.3104 40.8164 67.5516 40.5589 67.8732 40.3681C68.1948 40.1746 68.5805 40.0778 69.0302 40.0778C69.5916 40.0778 70.0508 40.2536 70.4079 40.6052C70.7649 40.954 70.9434 41.4978 70.9434 42.2364V46.439H69.9786V42.2364C69.9786 41.773 69.8519 41.4419 69.5984 41.2429C69.345 41.044 69.0465 40.9445 68.7031 40.9445C68.2616 40.9445 67.9196 41.0781 67.677 41.3451C67.4344 41.6095 67.3132 41.9447 67.3132 42.3508V46.439H66.332V42.1382C66.332 41.7812 66.2162 41.4937 65.9845 41.2756C65.7529 41.0549 65.4544 40.9445 65.0892 40.9445C64.8385 40.9445 64.6041 41.0113 64.3861 41.1448C64.1707 41.2784 63.9963 41.4637 63.8628 41.7008C63.732 41.9352 63.6665 42.2064 63.6665 42.5144V46.439H62.7017ZM75.2423 46.5698C74.6754 46.5698 74.1781 46.4349 73.7502 46.1651C73.325 45.8952 72.9925 45.5178 72.7527 45.0326C72.5155 44.5475 72.397 43.9806 72.397 43.332C72.397 42.6779 72.5155 42.1069 72.7527 41.6191C72.9925 41.1312 73.325 40.7524 73.7502 40.4825C74.1781 40.2127 74.6754 40.0778 75.2423 40.0778C75.8092 40.0778 76.3053 40.2127 76.7304 40.4825C77.1583 40.7524 77.4908 41.1312 77.7279 41.6191C77.9678 42.1069 78.0877 42.6779 78.0877 43.332C78.0877 43.9806 77.9678 44.5475 77.7279 45.0326C77.4908 45.5178 77.1583 45.8952 76.7304 46.1651C76.3053 46.4349 75.8092 46.5698 75.2423 46.5698ZM75.2423 45.7031C75.673 45.7031 76.0273 45.5927 76.3053 45.372C76.5832 45.1512 76.789 44.8609 76.9226 44.5012C77.0561 44.1414 77.1229 43.7517 77.1229 43.332C77.1229 42.9123 77.0561 42.5212 76.9226 42.1587C76.789 41.7962 76.5832 41.5032 76.3053 41.2797C76.0273 41.0563 75.673 40.9445 75.2423 40.9445C74.8117 40.9445 74.4574 41.0563 74.1794 41.2797C73.9014 41.5032 73.6957 41.7962 73.5621 42.1587C73.4286 42.5212 73.3618 42.9123 73.3618 43.332C73.3618 43.7517 73.4286 44.1414 73.5621 44.5012C73.6957 44.8609 73.9014 45.1512 74.1794 45.372C74.4574 45.5927 74.8117 45.7031 75.2423 45.7031ZM80.5091 38.0665V46.439H79.5443V38.0665H80.5091ZM85.2199 37.674L82.5217 47.6981H81.6387L84.3369 37.674H85.2199ZM86.4783 46.439V38.0665H87.4921V45.5396H91.384V46.439H86.4783Z" fill="black"/>
</svg>
