<svg width="50" height="48" viewBox="0 0 50 48" fill="none" xmlns="http://www.w3.org/2000/svg">
<path d="M23.0979 2.10996C23.6966 0.267342 26.3034 0.26734 26.9021 2.10996L31.2864 15.6034C31.5541 16.4274 32.3221 16.9854 33.1885 16.9854H47.3763C49.3138 16.9854 50.1193 19.4646 48.5519 20.6034L37.0737 28.9428C36.3727 29.4521 36.0794 30.3548 36.3472 31.1788L40.7314 44.6723C41.3302 46.5149 39.2212 48.0471 37.6538 46.9083L26.1756 38.5689C25.4746 38.0597 24.5254 38.0597 23.8244 38.5689L12.3462 46.9083C10.7788 48.0471 8.66985 46.5149 9.26856 44.6723L13.6528 31.1788C13.9206 30.3548 13.6273 29.4521 12.9263 28.9428L1.4481 20.6034C-0.119324 19.4646 0.686225 16.9854 2.62367 16.9854H16.8115C17.6779 16.9854 18.4459 16.4274 18.7136 15.6034L23.0979 2.10996Z" fill="#0064FF"/>
</svg>
