<svg width="413" height="285" viewBox="0 0 413 285" fill="none" xmlns="http://www.w3.org/2000/svg">
<circle cx="346.866" cy="9.36569" r="5.03659" fill="#FFCA28"/>
<path d="M361.893 5.49322L364.379 12.5412H364.477L366.963 5.49322H368.026L364.951 13.8657H363.905L360.83 5.49322H361.893ZM371.231 13.9965C370.626 13.9965 370.104 13.863 369.665 13.5959C369.229 13.3261 368.893 12.95 368.655 12.4676C368.421 11.9825 368.304 11.4183 368.304 10.7751C368.304 10.1319 368.421 9.565 368.655 9.07443C368.893 8.58112 369.222 8.19684 369.645 7.92157C370.07 7.64358 370.566 7.50458 371.133 7.50458C371.46 7.50458 371.783 7.55909 372.102 7.66811C372.421 7.77712 372.711 7.95428 372.972 8.19956C373.234 8.44213 373.443 8.76373 373.598 9.16436C373.753 9.565 373.831 10.0583 373.831 10.6443V11.0531H368.991V10.2191H372.85C372.85 9.8648 372.779 9.54865 372.637 9.27066C372.498 8.99266 372.299 8.77327 372.04 8.61247C371.784 8.45167 371.482 8.37127 371.133 8.37127C370.749 8.37127 370.416 8.46666 370.135 8.65744C369.857 8.84549 369.643 9.09078 369.493 9.3933C369.344 9.69582 369.269 10.0201 369.269 10.3663V10.9223C369.269 11.3965 369.35 11.7985 369.514 12.1283C369.68 12.4553 369.91 12.7047 370.205 12.8764C370.499 13.0454 370.841 13.1299 371.231 13.1299C371.484 13.1299 371.713 13.0944 371.918 13.0236C372.125 12.95 372.303 12.841 372.453 12.6965C372.603 12.5493 372.719 12.3667 372.801 12.1487L373.733 12.4103C373.635 12.7265 373.47 13.0045 373.238 13.2443C373.007 13.4814 372.72 13.6668 372.38 13.8003C372.039 13.9311 371.656 13.9965 371.231 13.9965ZM375.283 13.8657V7.58634H376.215V8.53479H376.28C376.394 8.22409 376.602 7.97199 376.901 7.77849C377.201 7.58498 377.539 7.48823 377.915 7.48823C377.986 7.48823 378.075 7.48959 378.181 7.49232C378.287 7.49504 378.368 7.49913 378.422 7.50458V8.48573C378.39 8.47756 378.315 8.46529 378.197 8.44894C378.083 8.42986 377.962 8.42032 377.834 8.42032C377.528 8.42032 377.256 8.48437 377.016 8.61247C376.779 8.73784 376.591 8.91226 376.452 9.13575C376.315 9.35651 376.247 9.60861 376.247 9.89205V13.8657H375.283ZM380.362 16.2205C380.199 16.2205 380.053 16.2069 379.925 16.1796C379.797 16.1551 379.708 16.1306 379.659 16.106L379.904 15.2557C380.139 15.3156 380.346 15.3375 380.526 15.3211C380.706 15.3047 380.865 15.2243 381.004 15.0799C381.146 14.9382 381.275 14.7079 381.392 14.389L381.572 13.8984L379.25 7.58634H380.297L382.03 12.5902H382.096L383.829 7.58634H384.876L382.21 14.7815C382.09 15.1058 381.942 15.3742 381.764 15.5868C381.587 15.8021 381.382 15.9616 381.147 16.0651C380.916 16.1687 380.654 16.2205 380.362 16.2205ZM390.319 10.0883V13.8657H389.355V5.49322H390.319V8.5675H390.401C390.548 8.24317 390.769 7.98562 391.063 7.79484C391.361 7.60133 391.756 7.50458 392.249 7.50458C392.677 7.50458 393.052 7.59043 393.373 7.76213C393.695 7.93111 393.944 8.19139 394.121 8.54297C394.301 8.89182 394.391 9.33607 394.391 9.8757V13.8657H393.426V9.94111C393.426 9.44236 393.297 9.05671 393.038 8.78417C392.782 8.5089 392.426 8.37127 391.971 8.37127C391.655 8.37127 391.371 8.43804 391.121 8.57158C390.873 8.70513 390.676 8.9 390.532 9.15619C390.39 9.41238 390.319 9.72308 390.319 10.0883ZM396.14 13.8657V7.58634H397.105V13.8657H396.14ZM396.631 6.53978C396.443 6.53978 396.28 6.47573 396.144 6.34764C396.011 6.21954 395.944 6.06556 395.944 5.88568C395.944 5.7058 396.011 5.55181 396.144 5.42372C396.28 5.29562 396.443 5.23158 396.631 5.23158C396.819 5.23158 396.98 5.29562 397.113 5.42372C397.249 5.55181 397.317 5.7058 397.317 5.88568C397.317 6.06556 397.249 6.21954 397.113 6.34764C396.98 6.47573 396.819 6.53978 396.631 6.53978ZM401.391 16.3513C400.924 16.3513 400.524 16.2914 400.189 16.1714C399.853 16.0542 399.574 15.8989 399.351 15.7054C399.13 15.5146 398.954 15.3102 398.823 15.0922L399.592 14.5525C399.679 14.667 399.789 14.7978 399.923 14.945C400.056 15.0949 400.239 15.2243 400.471 15.3334C400.705 15.4451 401.012 15.501 401.391 15.501C401.897 15.501 402.316 15.3783 402.646 15.133C402.975 14.8878 403.14 14.5035 403.14 13.9802V12.7047H403.059C402.988 12.8192 402.887 12.9609 402.756 13.1299C402.628 13.2961 402.443 13.4446 402.2 13.5755C401.96 13.7036 401.636 13.7676 401.227 13.7676C400.72 13.7676 400.265 13.6477 399.862 13.4079C399.461 13.168 399.143 12.8192 398.909 12.3613C398.677 11.9034 398.562 11.3474 398.562 10.6933C398.562 10.0501 398.675 9.49005 398.901 9.0131C399.127 8.53343 399.442 8.16277 399.845 7.90113C400.249 7.63676 400.715 7.50458 401.243 7.50458C401.652 7.50458 401.977 7.57272 402.216 7.70899C402.459 7.84253 402.644 7.99516 402.772 8.16686C402.903 8.33583 403.004 8.47483 403.075 8.58385H403.173V7.58634H404.105V14.0456C404.105 14.5852 403.982 15.024 403.737 15.362C403.495 15.7027 403.168 15.952 402.756 16.1101C402.347 16.2709 401.892 16.3513 401.391 16.3513ZM401.358 12.9009C401.745 12.9009 402.072 12.8123 402.339 12.6352C402.606 12.458 402.809 12.2032 402.948 11.8707C403.087 11.5382 403.157 11.1403 403.157 10.677C403.157 10.2246 403.088 9.82528 402.952 9.47915C402.816 9.13302 402.614 8.86184 402.347 8.66561C402.08 8.46938 401.75 8.37127 401.358 8.37127C400.949 8.37127 400.608 8.47483 400.336 8.68196C400.066 8.8891 399.863 9.16709 399.727 9.51594C399.593 9.8648 399.526 10.2518 399.526 10.677C399.526 11.113 399.594 11.4987 399.731 11.8339C399.87 12.1664 400.074 12.4281 400.344 12.6188C400.617 12.8069 400.954 12.9009 401.358 12.9009ZM406.82 10.0883V13.8657H405.855V5.49322H406.82V8.5675H406.902C407.049 8.24317 407.27 7.98562 407.564 7.79484C407.861 7.60133 408.256 7.50458 408.749 7.50458C409.177 7.50458 409.552 7.59043 409.874 7.76213C410.195 7.93111 410.445 8.19139 410.622 8.54297C410.802 8.89182 410.892 9.33607 410.892 9.8757V13.8657H409.927V9.94111C409.927 9.44236 409.797 9.05671 409.538 8.78417C409.282 8.5089 408.927 8.37127 408.471 8.37127C408.155 8.37127 407.872 8.43804 407.621 8.57158C407.373 8.70513 407.177 8.9 407.032 9.15619C406.891 9.41238 406.82 9.72308 406.82 10.0883Z" fill="black"/>
<circle cx="346.866" cy="29.2436" r="5.03659" fill="#C79A00"/>
<path d="M361.55 33.7437V25.3711H362.564V29.0995H367.028V25.3711H368.042V33.7437H367.028V29.9989H362.564V33.7437H361.55ZM369.925 33.7437V27.4643H370.89V33.7437H369.925ZM370.415 26.4177C370.227 26.4177 370.065 26.3537 369.929 26.2256C369.795 26.0975 369.729 25.9435 369.729 25.7636C369.729 25.5837 369.795 25.4297 369.929 25.3016C370.065 25.1736 370.227 25.1095 370.415 25.1095C370.603 25.1095 370.764 25.1736 370.898 25.3016C371.034 25.4297 371.102 25.5837 371.102 25.7636C371.102 25.9435 371.034 26.0975 370.898 26.2256C370.764 26.3537 370.603 26.4177 370.415 26.4177ZM375.175 36.2292C374.709 36.2292 374.309 36.1693 373.973 36.0494C373.638 35.9322 373.359 35.7768 373.135 35.5833C372.914 35.3925 372.739 35.1881 372.608 34.9701L373.376 34.4305C373.464 34.5449 373.574 34.6757 373.708 34.8229C373.841 34.9728 374.024 35.1023 374.255 35.2113C374.49 35.323 374.796 35.3789 375.175 35.3789C375.682 35.3789 376.1 35.2563 376.43 35.011C376.76 34.7657 376.925 34.3814 376.925 33.8581V32.5826H376.843C376.772 32.6971 376.671 32.8388 376.541 33.0078C376.413 33.174 376.227 33.3226 375.985 33.4534C375.745 33.5815 375.42 33.6455 375.012 33.6455C374.505 33.6455 374.05 33.5256 373.646 33.2858C373.246 33.0459 372.928 32.6971 372.694 32.2392C372.462 31.7813 372.346 31.2254 372.346 30.5713C372.346 29.9281 372.459 29.368 372.686 28.891C372.912 28.4114 373.227 28.0407 373.63 27.7791C374.033 27.5147 374.499 27.3825 375.028 27.3825C375.437 27.3825 375.761 27.4506 376.001 27.5869C376.244 27.7205 376.429 27.8731 376.557 28.0448C376.688 28.2138 376.789 28.3528 376.86 28.4618H376.958V27.4643H377.89V33.9235C377.89 34.4632 377.767 34.902 377.522 35.2399C377.279 35.5806 376.952 35.83 376.541 35.988C376.132 36.1488 375.677 36.2292 375.175 36.2292ZM375.142 32.7789C375.53 32.7789 375.857 32.6903 376.124 32.5131C376.391 32.336 376.594 32.0811 376.733 31.7486C376.872 31.4161 376.941 31.0182 376.941 30.5549C376.941 30.1025 376.873 29.7032 376.737 29.3571C376.601 29.011 376.399 28.7398 376.132 28.5435C375.865 28.3473 375.535 28.2492 375.142 28.2492C374.734 28.2492 374.393 28.3528 374.12 28.5599C373.851 28.767 373.648 29.045 373.511 29.3939C373.378 29.7427 373.311 30.1297 373.311 30.5549C373.311 30.991 373.379 31.3766 373.515 31.7118C373.654 32.0443 373.859 32.306 374.129 32.4968C374.401 32.6848 374.739 32.7789 375.142 32.7789ZM380.604 29.9662V33.7437H379.64V25.3711H380.604V28.4454H380.686C380.833 28.1211 381.054 27.8635 381.349 27.6728C381.646 27.4793 382.041 27.3825 382.534 27.3825C382.962 27.3825 383.337 27.4684 383.658 27.6401C383.98 27.809 384.229 28.0693 384.406 28.4209C384.586 28.7698 384.676 29.214 384.676 29.7536V33.7437H383.711V29.819C383.711 29.3203 383.582 28.9346 383.323 28.6621C383.067 28.3868 382.711 28.2492 382.256 28.2492C381.94 28.2492 381.656 28.316 381.406 28.4495C381.158 28.5831 380.962 28.7779 380.817 29.0341C380.675 29.2903 380.604 29.601 380.604 29.9662Z" fill="black"/>
<circle cx="346.866" cy="49.1218" r="5.03659" fill="#CCE0FF"/>
<path d="M362.564 45.2493V53.6218H361.55V45.2493H362.564ZM365.415 49.8444V53.6218H364.45V47.3424H365.382V48.3236H365.464C365.611 48.0047 365.834 47.7485 366.134 47.555C366.434 47.3588 366.821 47.2607 367.295 47.2607C367.72 47.2607 368.092 47.3479 368.411 47.5223C368.73 47.694 368.978 47.9557 369.155 48.3072C369.332 48.6561 369.421 49.0976 369.421 49.6318V53.6218H368.456V49.6972C368.456 49.2039 368.328 48.8196 368.072 48.5444C367.816 48.2664 367.464 48.1274 367.017 48.1274C366.709 48.1274 366.434 48.1941 366.191 48.3277C365.951 48.4612 365.762 48.6561 365.623 48.9123C365.484 49.1685 365.415 49.4792 365.415 49.8444ZM374.389 53.6218V47.3424H375.322V48.2909H375.387C375.501 47.9802 375.709 47.7281 376.008 47.5346C376.308 47.3411 376.646 47.2443 377.022 47.2443C377.093 47.2443 377.182 47.2457 377.288 47.2484C377.394 47.2511 377.475 47.2552 377.529 47.2607V48.2418C377.496 48.2337 377.422 48.2214 377.304 48.205C377.19 48.186 377.069 48.1764 376.94 48.1764C376.635 48.1764 376.363 48.2405 376.123 48.3686C375.886 48.4939 375.698 48.6684 375.559 48.8919C375.422 49.1126 375.354 49.3647 375.354 49.6482V53.6218H374.389ZM380.505 53.769C380.107 53.769 379.746 53.694 379.421 53.5442C379.097 53.3915 378.839 53.1721 378.649 52.886C378.458 52.5971 378.362 52.2482 378.362 51.8394C378.362 51.4796 378.433 51.188 378.575 50.9645C378.717 50.7383 378.906 50.5612 379.143 50.4331C379.38 50.305 379.642 50.2096 379.928 50.1469C380.217 50.0815 380.507 50.0297 380.799 49.9916C381.18 49.9425 381.49 49.9057 381.727 49.8812C381.967 49.8539 382.141 49.809 382.25 49.7463C382.362 49.6836 382.418 49.5746 382.418 49.4192V49.3865C382.418 48.9832 382.307 48.6697 382.087 48.4462C381.869 48.2228 381.537 48.111 381.093 48.111C380.633 48.111 380.272 48.2119 380.01 48.4135C379.748 48.6152 379.564 48.8305 379.458 49.0595L378.542 48.7324C378.706 48.3509 378.924 48.0538 379.196 47.8412C379.472 47.6259 379.771 47.476 380.096 47.3915C380.423 47.3043 380.744 47.2607 381.061 47.2607C381.262 47.2607 381.494 47.2852 381.756 47.3343C382.02 47.3806 382.275 47.4774 382.52 47.6245C382.768 47.7717 382.974 47.9938 383.137 48.2909C383.301 48.588 383.383 48.9859 383.383 49.4846V53.6218H382.418V52.7715H382.369C382.303 52.9078 382.194 53.0536 382.042 53.2089C381.889 53.3643 381.686 53.4965 381.433 53.6055C381.179 53.7145 380.87 53.769 380.505 53.769ZM380.652 52.9023C381.033 52.9023 381.355 52.8274 381.617 52.6775C381.881 52.5276 382.08 52.3341 382.213 52.097C382.35 51.8598 382.418 51.6105 382.418 51.3488V50.4658C382.377 50.5148 382.287 50.5598 382.148 50.6007C382.012 50.6388 381.854 50.6729 381.674 50.7029C381.497 50.7302 381.324 50.7547 381.155 50.7765C380.988 50.7956 380.853 50.8119 380.75 50.8255C380.499 50.8582 380.265 50.9114 380.047 50.985C379.831 51.0558 379.657 51.1635 379.523 51.3079C379.393 51.4497 379.327 51.6432 379.327 51.8885C379.327 52.2237 379.451 52.4771 379.699 52.6488C379.95 52.8178 380.267 52.9023 380.652 52.9023ZM386.092 49.8444V53.6218H385.127V47.3424H386.06V48.3236H386.141C386.288 48.0047 386.512 47.7485 386.812 47.555C387.112 47.3588 387.499 47.2607 387.973 47.2607C388.398 47.2607 388.77 47.3479 389.089 47.5223C389.408 47.694 389.656 47.9557 389.833 48.3072C390.01 48.6561 390.099 49.0976 390.099 49.6318V53.6218H389.134V49.6972C389.134 49.2039 389.006 48.8196 388.75 48.5444C388.493 48.2664 388.142 48.1274 387.695 48.1274C387.387 48.1274 387.112 48.1941 386.869 48.3277C386.629 48.4612 386.44 48.6561 386.301 48.9123C386.162 49.1685 386.092 49.4792 386.092 49.8444ZM394.38 56.1074C393.914 56.1074 393.513 56.0475 393.178 55.9275C392.843 55.8103 392.564 55.655 392.34 55.4615C392.119 55.2707 391.944 55.0663 391.813 54.8483L392.581 54.3086C392.669 54.4231 392.779 54.5539 392.913 54.7011C393.046 54.851 393.229 54.9805 393.46 55.0895C393.695 55.2012 394.001 55.2571 394.38 55.2571C394.887 55.2571 395.305 55.1344 395.635 54.8891C395.965 54.6439 396.13 54.2596 396.13 53.7363V52.4608H396.048C395.977 52.5753 395.876 52.717 395.746 52.886C395.618 53.0522 395.432 53.2007 395.19 53.3316C394.95 53.4597 394.625 53.5237 394.217 53.5237C393.71 53.5237 393.255 53.4038 392.851 53.164C392.451 52.9241 392.133 52.5753 391.899 52.1174C391.667 51.6595 391.551 51.1035 391.551 50.4494C391.551 49.8062 391.664 49.2462 391.89 48.7692C392.117 48.2895 392.431 47.9189 392.835 47.6572C393.238 47.3929 393.704 47.2607 394.233 47.2607C394.642 47.2607 394.966 47.3288 395.206 47.4651C395.449 47.5986 395.634 47.7513 395.762 47.923C395.893 48.0919 395.994 48.2309 396.064 48.34H396.163V47.3424H397.095V53.8017C397.095 54.3413 396.972 54.7801 396.727 55.1181C396.484 55.4588 396.157 55.7081 395.746 55.8662C395.337 56.027 394.882 56.1074 394.38 56.1074ZM394.347 52.657C394.734 52.657 395.062 52.5684 395.329 52.3913C395.596 52.2141 395.799 51.9593 395.938 51.6268C396.077 51.2943 396.146 50.8964 396.146 50.4331C396.146 49.9807 396.078 49.5814 395.942 49.2353C395.806 48.8891 395.604 48.6179 395.337 48.4217C395.07 48.2255 394.74 48.1274 394.347 48.1274C393.939 48.1274 393.598 48.2309 393.325 48.4381C393.056 48.6452 392.853 48.9232 392.716 49.272C392.583 49.6209 392.516 50.0079 392.516 50.4331C392.516 50.8691 392.584 51.2548 392.72 51.59C392.859 51.9225 393.064 52.1842 393.334 52.3749C393.606 52.563 393.944 52.657 394.347 52.657ZM401.477 53.7526C400.872 53.7526 400.35 53.6191 399.912 53.352C399.476 53.0822 399.139 52.7061 398.902 52.2237C398.667 51.7386 398.55 51.1744 398.55 50.5312C398.55 49.888 398.667 49.3211 398.902 48.8305C399.139 48.3372 399.469 47.9529 399.891 47.6777C400.316 47.3997 400.812 47.2607 401.379 47.2607C401.706 47.2607 402.029 47.3152 402.348 47.4242C402.667 47.5332 402.957 47.7104 403.219 47.9557C403.481 48.1982 403.689 48.5198 403.844 48.9205C404 49.3211 404.077 49.8144 404.077 50.4004V50.8092H399.237V49.9752H403.096C403.096 49.6209 403.025 49.3048 402.884 49.0268C402.745 48.7488 402.546 48.5294 402.287 48.3686C402.031 48.2078 401.728 48.1274 401.379 48.1274C400.995 48.1274 400.663 48.2228 400.382 48.4135C400.104 48.6016 399.89 48.8469 399.74 49.1494C399.59 49.4519 399.515 49.7763 399.515 50.1224V50.6784C399.515 51.1526 399.597 51.5546 399.76 51.8844C399.927 52.2114 400.157 52.4608 400.451 52.6325C400.746 52.8015 401.088 52.886 401.477 52.886C401.731 52.886 401.96 52.8505 402.164 52.7797C402.371 52.7061 402.55 52.5971 402.7 52.4526C402.85 52.3054 402.965 52.1228 403.047 51.9048L403.979 52.1664C403.881 52.4826 403.716 52.7606 403.485 53.0004C403.253 53.2375 402.967 53.4229 402.626 53.5564C402.285 53.6872 401.903 53.7526 401.477 53.7526Z" fill="black"/>
<circle cx="346.866" cy="68.9997" r="5.03659" fill="#710F95"/>
<path d="M361.55 73.4998V65.1272H362.564V72.6004H366.456V73.4998H361.55ZM370.43 73.6306C369.863 73.6306 369.365 73.4957 368.937 73.2259C368.512 72.956 368.18 72.5786 367.94 72.0934C367.703 71.6083 367.584 71.0414 367.584 70.3928C367.584 69.7387 367.703 69.1677 367.94 68.6798C368.18 68.192 368.512 67.8132 368.937 67.5433C369.365 67.2735 369.863 67.1386 370.43 67.1386C370.997 67.1386 371.493 67.2735 371.918 67.5433C372.346 67.8132 372.678 68.192 372.915 68.6798C373.155 69.1677 373.275 69.7387 373.275 70.3928C373.275 71.0414 373.155 71.6083 372.915 72.0934C372.678 72.5786 372.346 72.956 371.918 73.2259C371.493 73.4957 370.997 73.6306 370.43 73.6306ZM370.43 72.7639C370.86 72.7639 371.215 72.6535 371.493 72.4328C371.771 72.212 371.976 71.9217 372.11 71.562C372.243 71.2022 372.31 70.8125 372.31 70.3928C372.31 69.9731 372.243 69.582 372.11 69.2195C371.976 68.857 371.771 68.564 371.493 68.3405C371.215 68.117 370.86 68.0053 370.43 68.0053C369.999 68.0053 369.645 68.117 369.367 68.3405C369.089 68.564 368.883 68.857 368.749 69.2195C368.616 69.582 368.549 69.9731 368.549 70.3928C368.549 70.8125 368.616 71.2022 368.749 71.562C368.883 71.9217 369.089 72.212 369.367 72.4328C369.645 72.6535 369.999 72.7639 370.43 72.7639ZM375.941 73.4998L374.027 67.2204H375.041L376.399 72.028H376.464L377.805 67.2204H378.835L380.16 72.0117H380.225L381.582 67.2204H382.596L380.683 73.4998H379.734L378.361 68.6758H378.263L376.889 73.4998H375.941Z" fill="black"/>
<circle cx="346.866" cy="88.8779" r="5.03659" fill="#A04CBE"/>
<path d="M361.893 85.0054L364.379 92.0534H364.477L366.963 85.0054H368.026L364.951 93.3779H363.905L360.83 85.0054H361.893ZM371.231 93.5088C370.626 93.5088 370.104 93.3752 369.665 93.1081C369.229 92.8383 368.893 92.4622 368.655 91.9798C368.421 91.4947 368.304 90.9305 368.304 90.2873C368.304 89.6441 368.421 89.0772 368.655 88.5866C368.893 88.0933 369.222 87.709 369.645 87.4338C370.07 87.1558 370.566 87.0168 371.133 87.0168C371.46 87.0168 371.783 87.0713 372.102 87.1803C372.421 87.2893 372.711 87.4665 372.972 87.7118C373.234 87.9543 373.443 88.2759 373.598 88.6766C373.753 89.0772 373.831 89.5705 373.831 90.1565V90.5653H368.991V89.7313H372.85C372.85 89.377 372.779 89.0609 372.637 88.7829C372.498 88.5049 372.299 88.2855 372.04 88.1247C371.784 87.9639 371.482 87.8835 371.133 87.8835C370.749 87.8835 370.416 87.9789 370.135 88.1696C369.857 88.3577 369.643 88.603 369.493 88.9055C369.344 89.208 369.269 89.5324 369.269 89.8785V90.4345C369.269 90.9087 369.35 91.3107 369.514 91.6405C369.68 91.9675 369.91 92.2169 370.205 92.3886C370.499 92.5576 370.841 92.6421 371.231 92.6421C371.484 92.6421 371.713 92.6066 371.918 92.5358C372.125 92.4622 372.303 92.3532 372.453 92.2087C372.603 92.0615 372.719 91.8789 372.801 91.6609L373.733 91.9226C373.635 92.2387 373.47 92.5167 373.238 92.7565C373.007 92.9936 372.72 93.179 372.38 93.3125C372.039 93.4433 371.656 93.5088 371.231 93.5088ZM375.283 93.3779V87.0986H376.215V88.047H376.28C376.394 87.7363 376.602 87.4842 376.901 87.2907C377.201 87.0972 377.539 87.0004 377.915 87.0004C377.986 87.0004 378.075 87.0018 378.181 87.0045C378.287 87.0072 378.368 87.0113 378.422 87.0168V87.9979C378.39 87.9898 378.315 87.9775 378.197 87.9611C378.083 87.9421 377.962 87.9325 377.834 87.9325C377.528 87.9325 377.256 87.9966 377.016 88.1247C376.779 88.25 376.591 88.4245 376.452 88.648C376.315 88.8687 376.247 89.1208 376.247 89.4043V93.3779H375.283ZM380.362 95.7327C380.199 95.7327 380.053 95.7191 379.925 95.6918C379.797 95.6673 379.708 95.6428 379.659 95.6182L379.904 94.7679C380.139 94.8279 380.346 94.8497 380.526 94.8333C380.706 94.817 380.865 94.7366 381.004 94.5921C381.146 94.4504 381.275 94.2201 381.392 93.9012L381.572 93.4106L379.25 87.0986H380.297L382.03 92.1024H382.096L383.829 87.0986H384.876L382.21 94.2937C382.09 94.618 381.942 94.8865 381.764 95.099C381.587 95.3143 381.382 95.4738 381.147 95.5773C380.916 95.6809 380.654 95.7327 380.362 95.7327ZM390.319 85.0054V93.3779H389.355V85.0054H390.319ZM394.621 93.5088C394.054 93.5088 393.557 93.3738 393.129 93.104C392.704 92.8342 392.372 92.4567 392.132 91.9716C391.895 91.4865 391.776 90.9196 391.776 90.2709C391.776 89.6168 391.895 89.0459 392.132 88.558C392.372 88.0702 392.704 87.6913 393.129 87.4215C393.557 87.1517 394.054 87.0168 394.621 87.0168C395.188 87.0168 395.684 87.1517 396.109 87.4215C396.537 87.6913 396.87 88.0702 397.107 88.558C397.347 89.0459 397.467 89.6168 397.467 90.2709C397.467 90.9196 397.347 91.4865 397.107 91.9716C396.87 92.4567 396.537 92.8342 396.109 93.104C395.684 93.3738 395.188 93.5088 394.621 93.5088ZM394.621 92.6421C395.052 92.6421 395.406 92.5317 395.684 92.3109C395.962 92.0902 396.168 91.7999 396.302 91.4402C396.435 91.0804 396.502 90.6907 396.502 90.2709C396.502 89.8512 396.435 89.4601 396.302 89.0976C396.168 88.7352 395.962 88.4422 395.684 88.2187C395.406 87.9952 395.052 87.8835 394.621 87.8835C394.191 87.8835 393.836 87.9952 393.558 88.2187C393.28 88.4422 393.075 88.7352 392.941 89.0976C392.808 89.4601 392.741 89.8512 392.741 90.2709C392.741 90.6907 392.808 91.0804 392.941 91.4402C393.075 91.7999 393.28 92.0902 393.558 92.3109C393.836 92.5317 394.191 92.6421 394.621 92.6421ZM400.132 93.3779L398.219 87.0986H399.233L400.59 91.9062H400.656L401.997 87.0986H403.027L404.351 91.8898H404.417L405.774 87.0986H406.788L404.875 93.3779H403.926L402.553 88.5539H402.454L401.081 93.3779H400.132Z" fill="black"/>
<path d="M4.11415 3.25926V10.5852H3.22702V4.18931H3.1841L1.39554 5.37692V4.47548L3.22702 3.25926H4.11415ZM8.59649 10.6854C8.05754 10.6854 7.59847 10.5387 7.2193 10.2454C6.84012 9.94967 6.55037 9.52161 6.35006 8.96119C6.14974 8.39839 6.04958 7.71874 6.04958 6.92223C6.04958 6.1305 6.14974 5.45442 6.35006 4.89401C6.55276 4.33121 6.8437 3.90195 7.22287 3.60624C7.60443 3.30815 8.0623 3.1591 8.59649 3.1591C9.13067 3.1591 9.58735 3.30815 9.96653 3.60624C10.3481 3.90195 10.639 4.33121 10.8393 4.89401C11.042 5.45442 11.1434 6.1305 11.1434 6.92223C11.1434 7.71874 11.0432 8.39839 10.8429 8.96119C10.6426 9.52161 10.3529 9.94967 9.97368 10.2454C9.5945 10.5387 9.13544 10.6854 8.59649 10.6854ZM8.59649 9.8984C9.13067 9.8984 9.54562 9.64085 9.84133 9.12574C10.137 8.61063 10.2849 7.87613 10.2849 6.92223C10.2849 6.28789 10.2169 5.74775 10.081 5.3018C9.94745 4.85585 9.75428 4.51602 9.5015 4.28232C9.2511 4.04861 8.94943 3.93176 8.59649 3.93176C8.06707 3.93176 7.65332 4.19289 7.35523 4.71515C7.05713 5.23502 6.90809 5.97072 6.90809 6.92223C6.90809 7.55658 6.97486 8.09553 7.10841 8.53909C7.24195 8.98265 7.43392 9.3201 7.68432 9.55142C7.93711 9.78274 8.24116 9.8984 8.59649 9.8984ZM14.8781 10.6854C14.3392 10.6854 13.8801 10.5387 13.5009 10.2454C13.1218 9.94967 12.832 9.52161 12.6317 8.96119C12.4314 8.39839 12.3312 7.71874 12.3312 6.92223C12.3312 6.1305 12.4314 5.45442 12.6317 4.89401C12.8344 4.33121 13.1253 3.90195 13.5045 3.60624C13.8861 3.30815 14.3439 3.1591 14.8781 3.1591C15.4123 3.1591 15.869 3.30815 16.2482 3.60624C16.6297 3.90195 16.9207 4.33121 17.121 4.89401C17.3237 5.45442 17.425 6.1305 17.425 6.92223C17.425 7.71874 17.3249 8.39839 17.1246 8.96119C16.9242 9.52161 16.6345 9.94967 16.2553 10.2454C15.8761 10.5387 15.4171 10.6854 14.8781 10.6854ZM14.8781 9.8984C15.4123 9.8984 15.8272 9.64085 16.123 9.12574C16.4187 8.61063 16.5665 7.87613 16.5665 6.92223C16.5665 6.28789 16.4986 5.74775 16.3626 5.3018C16.2291 4.85585 16.0359 4.51602 15.7831 4.28232C15.5327 4.04861 15.2311 3.93176 14.8781 3.93176C14.3487 3.93176 13.935 4.19289 13.6369 4.71515C13.3388 5.23502 13.1897 5.97072 13.1897 6.92223C13.1897 7.55658 13.2565 8.09553 13.39 8.53909C13.5236 8.98265 13.7156 9.3201 13.966 9.55142C14.2187 9.78274 14.5228 9.8984 14.8781 9.8984ZM22.5047 9.21159V8.82526C22.5047 8.55817 22.5596 8.31373 22.6693 8.09195C22.7814 7.86779 22.9435 7.68893 23.1558 7.55538C23.3704 7.41945 23.6303 7.35149 23.9356 7.35149C24.2456 7.35149 24.5055 7.41945 24.7154 7.55538C24.9253 7.68893 25.0839 7.86779 25.1912 8.09195C25.2985 8.31373 25.3521 8.55817 25.3521 8.82526V9.21159C25.3521 9.47868 25.2973 9.72431 25.1876 9.94848C25.0803 10.1703 24.9205 10.3491 24.7083 10.485C24.4984 10.6186 24.2408 10.6854 23.9356 10.6854C23.6256 10.6854 23.3644 10.6186 23.1522 10.485C22.94 10.3491 22.779 10.1703 22.6693 9.94848C22.5596 9.72431 22.5047 9.47868 22.5047 9.21159ZM23.2345 8.82526V9.21159C23.2345 9.43337 23.2869 9.6325 23.3919 9.80897C23.4968 9.98306 23.678 10.0701 23.9356 10.0701C24.186 10.0701 24.3625 9.98306 24.465 9.80897C24.5699 9.6325 24.6224 9.43337 24.6224 9.21159V8.82526C24.6224 8.60348 24.5723 8.40555 24.4722 8.23146C24.372 8.05499 24.1931 7.96675 23.9356 7.96675C23.6852 7.96675 23.5051 8.05499 23.3954 8.23146C23.2881 8.40555 23.2345 8.60348 23.2345 8.82526ZM18.8561 5.01921V4.63288C18.8561 4.36578 18.9109 4.12135 19.0206 3.89957C19.1327 3.6754 19.2949 3.49654 19.5071 3.363C19.7217 3.22707 19.9817 3.1591 20.2869 3.1591C20.5969 3.1591 20.8569 3.22707 21.0667 3.363C21.2766 3.49654 21.4352 3.6754 21.5425 3.89957C21.6498 4.12135 21.7035 4.36578 21.7035 4.63288V5.01921C21.7035 5.2863 21.6486 5.53193 21.5389 5.75609C21.4316 5.97787 21.2718 6.15673 21.0596 6.29266C20.8497 6.42621 20.5922 6.49298 20.2869 6.49298C19.9769 6.49298 19.7158 6.42621 19.5035 6.29266C19.2913 6.15673 19.1303 5.97787 19.0206 5.75609C18.9109 5.53193 18.8561 5.2863 18.8561 5.01921ZM19.5858 4.63288V5.01921C19.5858 5.24099 19.6383 5.44011 19.7432 5.61658C19.8481 5.79067 20.0294 5.87771 20.2869 5.87771C20.5373 5.87771 20.7138 5.79067 20.8163 5.61658C20.9213 5.44011 20.9737 5.24099 20.9737 5.01921V4.63288C20.9737 4.41109 20.9237 4.21316 20.8235 4.03907C20.7233 3.8626 20.5445 3.77437 20.2869 3.77437C20.0365 3.77437 19.8565 3.8626 19.7468 4.03907C19.6395 4.21316 19.5858 4.41109 19.5858 4.63288ZM19.1279 10.5852L24.1645 3.25926H24.9801L19.9435 10.5852H19.1279Z" fill="black"/>
<path d="M8.88521 52.5755C8.39396 52.5755 7.95993 52.4885 7.58314 52.3144C7.20874 52.1379 6.91661 51.8958 6.70675 51.5882C6.49689 51.2782 6.39315 50.9253 6.39554 50.5294C6.39315 50.2194 6.45396 49.9332 6.57797 49.6709C6.70198 49.4062 6.8713 49.1856 7.08592 49.0091C7.30293 48.8303 7.54499 48.717 7.81208 48.6693V48.6264C7.46152 48.5357 7.1825 48.339 6.97503 48.0361C6.76756 47.7309 6.66501 47.3839 6.6674 46.9952C6.66501 46.6232 6.75921 46.2905 6.94999 45.9972C7.14077 45.7039 7.40309 45.4725 7.73696 45.3032C8.07321 45.1339 8.45596 45.0492 8.88521 45.0492C9.3097 45.0492 9.68887 45.1339 10.0227 45.3032C10.3566 45.4725 10.6189 45.7039 10.8097 45.9972C11.0029 46.2905 11.1006 46.6232 11.103 46.9952C11.1006 47.3839 10.9945 47.7309 10.7847 48.0361C10.5772 48.339 10.3018 48.5357 9.95835 48.6264V48.6693C10.2231 48.717 10.4615 48.8303 10.6738 49.0091C10.886 49.1856 11.0553 49.4062 11.1817 49.6709C11.3081 49.9332 11.3725 50.2194 11.3749 50.5294C11.3725 50.9253 11.2652 51.2782 11.0529 51.5882C10.8431 51.8958 10.551 52.1379 10.1766 52.3144C9.80453 52.4885 9.37409 52.5755 8.88521 52.5755ZM8.88521 51.7885C9.21669 51.7885 9.50286 51.7349 9.74372 51.6276C9.98458 51.5203 10.1706 51.3688 10.3018 51.1733C10.4329 50.9777 10.4997 50.7488 10.5021 50.4865C10.4997 50.2098 10.4281 49.9654 10.2874 49.7532C10.1467 49.5409 9.95477 49.374 9.71153 49.2524C9.47067 49.1307 9.19523 49.0699 8.88521 49.0699C8.57281 49.0699 8.2938 49.1307 8.04817 49.2524C7.80492 49.374 7.61295 49.5409 7.47225 49.7532C7.33394 49.9654 7.26597 50.2098 7.26836 50.4865C7.26597 50.7488 7.32917 50.9777 7.45794 51.1733C7.5891 51.3688 7.77631 51.5203 8.01955 51.6276C8.2628 51.7349 8.55135 51.7885 8.88521 51.7885ZM8.88521 48.3116C9.14754 48.3116 9.38005 48.2591 9.58275 48.1542C9.78784 48.0493 9.94881 47.9026 10.0657 47.7142C10.1825 47.5258 10.2421 47.3052 10.2445 47.0524C10.2421 46.8044 10.1837 46.5886 10.0692 46.405C9.95477 46.219 9.79619 46.0759 9.59348 45.9757C9.39078 45.8732 9.15469 45.8219 8.88521 45.8219C8.61097 45.8219 8.3713 45.8732 8.16621 45.9757C7.96112 46.0759 7.80254 46.219 7.69046 46.405C7.57837 46.5886 7.52352 46.8044 7.52591 47.0524C7.52352 47.3052 7.57957 47.5258 7.69403 47.7142C7.81089 47.9026 7.97186 48.0493 8.17694 48.1542C8.38203 48.2591 8.61812 48.3116 8.88521 48.3116ZM15.1212 52.5755C14.5823 52.5755 14.1232 52.4288 13.744 52.1355C13.3649 51.8398 13.0751 51.4117 12.8748 50.8513C12.6745 50.2885 12.5743 49.6089 12.5743 48.8124C12.5743 48.0206 12.6745 47.3446 12.8748 46.7841C13.0775 46.2213 13.3684 45.7921 13.7476 45.4964C14.1292 45.1983 14.5871 45.0492 15.1212 45.0492C15.6554 45.0492 16.1121 45.1983 16.4913 45.4964C16.8728 45.7921 17.1638 46.2213 17.3641 46.7841C17.5668 47.3446 17.6681 48.0206 17.6681 48.8124C17.6681 49.6089 17.568 50.2885 17.3677 50.8513C17.1673 51.4117 16.8776 51.8398 16.4984 52.1355C16.1193 52.4288 15.6602 52.5755 15.1212 52.5755ZM15.1212 51.7885C15.6554 51.7885 16.0704 51.531 16.3661 51.0159C16.6618 50.5008 16.8096 49.7663 16.8096 48.8124C16.8096 48.178 16.7417 47.6379 16.6057 47.1919C16.4722 46.746 16.279 46.4062 16.0262 46.1725C15.7758 45.9387 15.4742 45.8219 15.1212 45.8219C14.5918 45.8219 14.1781 46.083 13.88 46.6053C13.5819 47.1252 13.4328 47.8609 13.4328 48.8124C13.4328 49.4467 13.4996 49.9857 13.6332 50.4292C13.7667 50.8728 13.9587 51.2102 14.2091 51.4416C14.4619 51.6729 14.7659 51.7885 15.1212 51.7885ZM22.7479 51.1017V50.7154C22.7479 50.4483 22.8027 50.2039 22.9124 49.9821C23.0245 49.7579 23.1867 49.5791 23.3989 49.4455C23.6135 49.3096 23.8735 49.2416 24.1787 49.2416C24.4887 49.2416 24.7487 49.3096 24.9585 49.4455C25.1684 49.5791 25.327 49.7579 25.4343 49.9821C25.5416 50.2039 25.5953 50.4483 25.5953 50.7154V51.1017C25.5953 51.3688 25.5404 51.6144 25.4307 51.8386C25.3234 52.0604 25.1636 52.2393 24.9514 52.3752C24.7415 52.5087 24.484 52.5755 24.1787 52.5755C23.8687 52.5755 23.6076 52.5087 23.3953 52.3752C23.1831 52.2393 23.0221 52.0604 22.9124 51.8386C22.8027 51.6144 22.7479 51.3688 22.7479 51.1017ZM23.4776 50.7154V51.1017C23.4776 51.3235 23.5301 51.5226 23.635 51.6991C23.7399 51.8732 23.9212 51.9602 24.1787 51.9602C24.4291 51.9602 24.6056 51.8732 24.7081 51.6991C24.8131 51.5226 24.8655 51.3235 24.8655 51.1017V50.7154C24.8655 50.4936 24.8154 50.2957 24.7153 50.1216C24.6151 49.9451 24.4363 49.8569 24.1787 49.8569C23.9283 49.8569 23.7483 49.9451 23.6386 50.1216C23.5313 50.2957 23.4776 50.4936 23.4776 50.7154ZM19.0992 46.9093V46.523C19.0992 46.2559 19.154 46.0115 19.2637 45.7897C19.3758 45.5655 19.538 45.3867 19.7502 45.2531C19.9649 45.1172 20.2248 45.0492 20.53 45.0492C20.8401 45.0492 21.1 45.1172 21.3099 45.2531C21.5197 45.3867 21.6783 45.5655 21.7856 45.7897C21.8929 46.0115 21.9466 46.2559 21.9466 46.523V46.9093C21.9466 47.1764 21.8917 47.4221 21.782 47.6462C21.6747 47.868 21.5149 48.0469 21.3027 48.1828C21.0928 48.3163 20.8353 48.3831 20.53 48.3831C20.22 48.3831 19.9589 48.3163 19.7467 48.1828C19.5344 48.0469 19.3734 47.868 19.2637 47.6462C19.154 47.4221 19.0992 47.1764 19.0992 46.9093ZM19.8289 46.523V46.9093C19.8289 47.1311 19.8814 47.3302 19.9863 47.5067C20.0913 47.6808 20.2725 47.7679 20.53 47.7679C20.7804 47.7679 20.9569 47.6808 21.0595 47.5067C21.1644 47.3302 21.2169 47.1311 21.2169 46.9093V46.523C21.2169 46.3012 21.1668 46.1033 21.0666 45.9292C20.9665 45.7527 20.7876 45.6645 20.53 45.6645C20.2797 45.6645 20.0996 45.7527 19.9899 45.9292C19.8826 46.1033 19.8289 46.3012 19.8289 46.523ZM19.3711 52.4753L24.4076 45.1494H25.2232L20.1866 52.4753H19.3711Z" fill="black"/>
<path d="M8.97107 94.4659C8.67059 94.4611 8.37011 94.4039 8.06963 94.2942C7.76915 94.1845 7.49491 93.9997 7.24689 93.7397C6.99888 93.4774 6.79975 93.1233 6.64951 92.6773C6.49927 92.229 6.42416 91.6662 6.42416 90.9889C6.42416 90.3403 6.48497 89.7655 6.60659 89.2647C6.72821 88.7616 6.90468 88.3383 7.136 87.9949C7.36732 87.6491 7.64634 87.3868 7.97305 87.2079C8.30214 87.029 8.67297 86.9396 9.08553 86.9396C9.49571 86.9396 9.86058 87.0219 10.1801 87.1864C10.5021 87.3486 10.7644 87.5752 10.9671 87.8661C11.1698 88.157 11.301 88.4921 11.3606 88.8713H10.4878C10.4067 88.5422 10.2493 88.2691 10.0156 88.0521C9.78188 87.8351 9.47186 87.7266 9.08553 87.7266C8.51796 87.7266 8.07082 87.9734 7.74411 88.4671C7.41979 88.9607 7.25643 89.6535 7.25405 90.5454H7.31128C7.44483 90.3427 7.60341 90.1698 7.78704 90.0267C7.97305 89.8812 8.17814 89.7691 8.4023 89.6904C8.62647 89.6117 8.86375 89.5724 9.11415 89.5724C9.53387 89.5724 9.91781 89.6773 10.266 89.8872C10.6142 90.0946 10.8932 90.382 11.103 90.7493C11.3129 91.1141 11.4178 91.5326 11.4178 92.0048C11.4178 92.4579 11.3165 92.8729 11.1138 93.2497C10.9111 93.6241 10.6261 93.9222 10.2588 94.1439C9.89396 94.3633 9.46471 94.4707 8.97107 94.4659ZM8.97107 93.6789C9.27154 93.6789 9.54102 93.6038 9.77949 93.4536C10.0204 93.3033 10.2099 93.1018 10.3483 92.849C10.489 92.5962 10.5593 92.3148 10.5593 92.0048C10.5593 91.702 10.4913 91.4265 10.3554 91.1785C10.2219 90.9281 10.037 90.729 9.80096 90.5811C9.56725 90.4333 9.30016 90.3593 8.99968 90.3593C8.77313 90.3593 8.56208 90.4047 8.36653 90.4953C8.17098 90.5835 7.99928 90.7051 7.85143 90.8601C7.70596 91.0152 7.59149 91.1928 7.50802 91.3931C7.42456 91.5911 7.38282 91.7997 7.38282 92.0191C7.38282 92.3101 7.45079 92.5819 7.58672 92.8347C7.72503 93.0875 7.91343 93.2914 8.1519 93.4464C8.39276 93.6014 8.66582 93.6789 8.97107 93.6789ZM15.1999 94.4659C14.661 94.4659 14.2019 94.3192 13.8227 94.0259C13.4436 93.7302 13.1538 93.3021 12.9535 92.7417C12.7532 92.1789 12.653 91.4993 12.653 90.7028C12.653 89.911 12.7532 89.2349 12.9535 88.6745C13.1562 88.1117 13.4471 87.6825 13.8263 87.3868C14.2079 87.0887 14.6657 86.9396 15.1999 86.9396C15.7341 86.9396 16.1908 87.0887 16.57 87.3868C16.9515 87.6825 17.2425 88.1117 17.4428 88.6745C17.6455 89.2349 17.7468 89.911 17.7468 90.7028C17.7468 91.4993 17.6467 92.1789 17.4464 92.7417C17.246 93.3021 16.9563 93.7302 16.5771 94.0259C16.1979 94.3192 15.7389 94.4659 15.1999 94.4659ZM15.1999 93.6789C15.7341 93.6789 16.1491 93.4214 16.4448 92.9063C16.7405 92.3912 16.8883 91.6566 16.8883 90.7028C16.8883 90.0684 16.8204 89.5283 16.6844 89.0823C16.5509 88.6364 16.3577 88.2965 16.1049 88.0628C15.8545 87.8291 15.5529 87.7123 15.1999 87.7123C14.6705 87.7123 14.2568 87.9734 13.9587 88.4957C13.6606 89.0155 13.5115 89.7512 13.5115 90.7028C13.5115 91.3371 13.5783 91.876 13.7119 92.3196C13.8454 92.7632 14.0374 93.1006 14.2878 93.3319C14.5405 93.5633 14.8446 93.6789 15.1999 93.6789ZM22.8266 92.9921V92.6058C22.8266 92.3387 22.8814 92.0943 22.9911 91.8725C23.1032 91.6483 23.2654 91.4694 23.4776 91.3359C23.6922 91.2 23.9522 91.132 24.2574 91.132C24.5674 91.132 24.8274 91.2 25.0372 91.3359C25.2471 91.4694 25.4057 91.6483 25.513 91.8725C25.6203 92.0943 25.6739 92.3387 25.6739 92.6058V92.9921C25.6739 93.2592 25.6191 93.5048 25.5094 93.729C25.4021 93.9508 25.2423 94.1296 25.0301 94.2656C24.8202 94.3991 24.5627 94.4659 24.2574 94.4659C23.9474 94.4659 23.6863 94.3991 23.474 94.2656C23.2618 94.1296 23.1008 93.9508 22.9911 93.729C22.8814 93.5048 22.8266 93.2592 22.8266 92.9921ZM23.5563 92.6058V92.9921C23.5563 93.2139 23.6088 93.413 23.7137 93.5895C23.8186 93.7636 23.9999 93.8506 24.2574 93.8506C24.5078 93.8506 24.6843 93.7636 24.7868 93.5895C24.8918 93.413 24.9442 93.2139 24.9442 92.9921V92.6058C24.9442 92.384 24.8941 92.1861 24.794 92.012C24.6938 91.8355 24.515 91.7473 24.2574 91.7473C24.007 91.7473 23.827 91.8355 23.7173 92.012C23.6099 92.1861 23.5563 92.384 23.5563 92.6058ZM19.1779 88.7997V88.4134C19.1779 88.1463 19.2327 87.9019 19.3424 87.6801C19.4545 87.4559 19.6167 87.2771 19.8289 87.1435C20.0436 87.0076 20.3035 86.9396 20.6087 86.9396C20.9188 86.9396 21.1787 87.0076 21.3886 87.1435C21.5984 87.2771 21.757 87.4559 21.8643 87.6801C21.9716 87.9019 22.0253 88.1463 22.0253 88.4134V88.7997C22.0253 89.0668 21.9704 89.3124 21.8607 89.5366C21.7534 89.7584 21.5936 89.9372 21.3814 90.0732C21.1715 90.2067 20.914 90.2735 20.6087 90.2735C20.2987 90.2735 20.0376 90.2067 19.8254 90.0732C19.6131 89.9372 19.4521 89.7584 19.3424 89.5366C19.2327 89.3124 19.1779 89.0668 19.1779 88.7997ZM19.9076 88.4134V88.7997C19.9076 89.0215 19.9601 89.2206 20.065 89.3971C20.17 89.5712 20.3512 89.6582 20.6087 89.6582C20.8591 89.6582 21.0356 89.5712 21.1382 89.3971C21.2431 89.2206 21.2956 89.0215 21.2956 88.7997V88.4134C21.2956 88.1916 21.2455 87.9937 21.1453 87.8196C21.0452 87.6431 20.8663 87.5549 20.6087 87.5549C20.3583 87.5549 20.1783 87.6431 20.0686 87.8196C19.9613 87.9937 19.9076 88.1916 19.9076 88.4134ZM19.4498 94.3657L24.4863 87.0398H25.3019L20.2653 94.3657H19.4498Z" fill="black"/>
<path d="M6.36692 134.753V134.024L9.58633 128.93H10.1157V130.06H9.75803L7.32559 133.909V133.967H11.6611V134.753H6.36692ZM9.81527 136.256V134.532V134.192V128.93H10.6595V136.256H9.81527ZM15.377 136.356C14.838 136.356 14.379 136.209 13.9998 135.916C13.6206 135.62 13.3309 135.192 13.1306 134.632C12.9302 134.069 12.8301 133.389 12.8301 132.593C12.8301 131.801 12.9302 131.125 13.1306 130.565C13.3333 130.002 13.6242 129.573 14.0034 129.277C14.3849 128.979 14.8428 128.83 15.377 128.83C15.9112 128.83 16.3679 128.979 16.747 129.277C17.1286 129.573 17.4195 130.002 17.6199 130.565C17.8226 131.125 17.9239 131.801 17.9239 132.593C17.9239 133.389 17.8238 134.069 17.6234 134.632C17.4231 135.192 17.1334 135.62 16.7542 135.916C16.375 136.209 15.916 136.356 15.377 136.356ZM15.377 135.569C15.9112 135.569 16.3261 135.311 16.6218 134.796C16.9175 134.281 17.0654 133.547 17.0654 132.593C17.0654 131.959 16.9974 131.418 16.8615 130.972C16.728 130.527 16.5348 130.187 16.282 129.953C16.0316 129.719 15.7299 129.602 15.377 129.602C14.8476 129.602 14.4338 129.864 14.1357 130.386C13.8376 130.906 13.6886 131.641 13.6886 132.593C13.6886 133.227 13.7554 133.766 13.8889 134.21C14.0225 134.653 14.2144 134.991 14.4648 135.222C14.7176 135.453 15.0217 135.569 15.377 135.569ZM23.0036 134.882V134.496C23.0036 134.229 23.0585 133.984 23.1682 133.763C23.2803 133.538 23.4424 133.36 23.6547 133.226C23.8693 133.09 24.1292 133.022 24.4345 133.022C24.7445 133.022 25.0044 133.09 25.2143 133.226C25.4241 133.36 25.5827 133.538 25.69 133.763C25.7974 133.984 25.851 134.229 25.851 134.496V134.882C25.851 135.149 25.7962 135.395 25.6865 135.619C25.5792 135.841 25.4194 136.02 25.2071 136.156C24.9973 136.289 24.7397 136.356 24.4345 136.356C24.1245 136.356 23.8633 136.289 23.6511 136.156C23.4388 136.02 23.2779 135.841 23.1682 135.619C23.0585 135.395 23.0036 135.149 23.0036 134.882ZM23.7334 134.496V134.882C23.7334 135.104 23.7858 135.303 23.8908 135.48C23.9957 135.654 24.1769 135.741 24.4345 135.741C24.6849 135.741 24.8613 135.654 24.9639 135.48C25.0688 135.303 25.1213 135.104 25.1213 134.882V134.496C25.1213 134.274 25.0712 134.076 24.971 133.902C24.8709 133.726 24.692 133.637 24.4345 133.637C24.1841 133.637 24.004 133.726 23.8943 133.902C23.787 134.076 23.7334 134.274 23.7334 134.496ZM19.355 130.69V130.304C19.355 130.036 19.4098 129.792 19.5195 129.57C19.6316 129.346 19.7938 129.167 20.006 129.034C20.2206 128.898 20.4806 128.83 20.7858 128.83C21.0958 128.83 21.3558 128.898 21.5656 129.034C21.7755 129.167 21.9341 129.346 22.0414 129.57C22.1487 129.792 22.2024 130.036 22.2024 130.304V130.69C22.2024 130.957 22.1475 131.203 22.0378 131.427C21.9305 131.649 21.7707 131.827 21.5585 131.963C21.3486 132.097 21.0911 132.164 20.7858 132.164C20.4758 132.164 20.2147 132.097 20.0024 131.963C19.7902 131.827 19.6292 131.649 19.5195 131.427C19.4098 131.203 19.355 130.957 19.355 130.69ZM20.0847 130.304V130.69C20.0847 130.912 20.1372 131.111 20.2421 131.287C20.347 131.461 20.5283 131.548 20.7858 131.548C21.0362 131.548 21.2127 131.461 21.3152 131.287C21.4202 131.111 21.4726 130.912 21.4726 130.69V130.304C21.4726 130.082 21.4225 129.884 21.3224 129.71C21.2222 129.533 21.0434 129.445 20.7858 129.445C20.5354 129.445 20.3554 129.533 20.2457 129.71C20.1384 129.884 20.0847 130.082 20.0847 130.304ZM19.6268 136.256L24.6634 128.93H25.479L20.4424 136.256H19.6268Z" fill="black"/>
<path d="M6.53862 178.146V177.502L8.95676 174.855C9.24054 174.545 9.47425 174.276 9.65787 174.047C9.8415 173.816 9.97743 173.599 10.0657 173.396C10.1563 173.191 10.2016 172.976 10.2016 172.752C10.2016 172.494 10.1396 172.271 10.0156 172.083C9.89396 171.895 9.72703 171.749 9.51479 171.647C9.30254 171.544 9.06407 171.493 8.79936 171.493C8.51796 171.493 8.27233 171.551 8.06248 171.668C7.855 171.783 7.69403 171.944 7.57957 172.151C7.46748 172.358 7.41144 172.602 7.41144 172.881H6.56724C6.56724 172.451 6.66621 172.075 6.86414 171.75C7.06208 171.426 7.33155 171.173 7.67257 170.992C8.01597 170.811 8.40111 170.72 8.82798 170.72C9.25723 170.72 9.6376 170.811 9.96908 170.992C10.3006 171.173 10.5605 171.418 10.7489 171.725C10.9373 172.033 11.0315 172.375 11.0315 172.752C11.0315 173.021 10.9826 173.285 10.8848 173.542C10.7894 173.798 10.6225 174.083 10.384 174.397C10.1479 174.71 9.82003 175.091 9.40032 175.542L7.75484 177.302V177.359H11.1603V178.146H6.53862ZM15.013 178.246C14.4741 178.246 14.015 178.1 13.6358 177.806C13.2567 177.511 12.9669 177.083 12.7666 176.522C12.5663 175.959 12.4661 175.28 12.4661 174.483C12.4661 173.692 12.5663 173.015 12.7666 172.455C12.9693 171.892 13.2602 171.463 13.6394 171.167C14.021 170.869 14.4788 170.72 15.013 170.72C15.5472 170.72 16.0039 170.869 16.3831 171.167C16.7646 171.463 17.0556 171.892 17.2559 172.455C17.4586 173.015 17.5599 173.692 17.5599 174.483C17.5599 175.28 17.4598 175.959 17.2595 176.522C17.0591 177.083 16.7694 177.511 16.3902 177.806C16.011 178.1 15.552 178.246 15.013 178.246ZM15.013 177.459C15.5472 177.459 15.9622 177.202 16.2579 176.687C16.5536 176.172 16.7014 175.437 16.7014 174.483C16.7014 173.849 16.6335 173.309 16.4975 172.863C16.364 172.417 16.1708 172.077 15.918 171.843C15.6676 171.61 15.366 171.493 15.013 171.493C14.4836 171.493 14.0699 171.754 13.7718 172.276C13.4737 172.796 13.3246 173.532 13.3246 174.483C13.3246 175.118 13.3914 175.657 13.5249 176.1C13.6585 176.544 13.8505 176.881 14.1009 177.112C14.3536 177.344 14.6577 177.459 15.013 177.459ZM22.6397 176.773V176.386C22.6397 176.119 22.6945 175.875 22.8042 175.653C22.9163 175.429 23.0784 175.25 23.2907 175.116C23.5053 174.98 23.7653 174.913 24.0705 174.913C24.3805 174.913 24.6405 174.98 24.8503 175.116C25.0602 175.25 25.2188 175.429 25.3261 175.653C25.4334 175.875 25.487 176.119 25.487 176.386V176.773C25.487 177.04 25.4322 177.285 25.3225 177.51C25.2152 177.731 25.0554 177.91 24.8432 178.046C24.6333 178.18 24.3758 178.246 24.0705 178.246C23.7605 178.246 23.4994 178.18 23.2871 178.046C23.0749 177.91 22.9139 177.731 22.8042 177.51C22.6945 177.285 22.6397 177.04 22.6397 176.773ZM23.3694 176.386V176.773C23.3694 176.994 23.4219 177.194 23.5268 177.37C23.6317 177.544 23.813 177.631 24.0705 177.631C24.3209 177.631 24.4974 177.544 24.5999 177.37C24.7048 177.194 24.7573 176.994 24.7573 176.773V176.386C24.7573 176.165 24.7072 175.967 24.6071 175.792C24.5069 175.616 24.3281 175.528 24.0705 175.528C23.8201 175.528 23.6401 175.616 23.5304 175.792C23.423 175.967 23.3694 176.165 23.3694 176.386ZM18.991 172.58V172.194C18.991 171.927 19.0458 171.682 19.1555 171.461C19.2676 171.236 19.4298 171.058 19.642 170.924C19.8567 170.788 20.1166 170.72 20.4218 170.72C20.7319 170.72 20.9918 170.788 21.2017 170.924C21.4115 171.058 21.5701 171.236 21.6774 171.461C21.7847 171.682 21.8384 171.927 21.8384 172.194V172.58C21.8384 172.847 21.7835 173.093 21.6738 173.317C21.5665 173.539 21.4067 173.718 21.1945 173.854C20.9846 173.987 20.7271 174.054 20.4218 174.054C20.1118 174.054 19.8507 173.987 19.6385 173.854C19.4262 173.718 19.2652 173.539 19.1555 173.317C19.0458 173.093 18.991 172.847 18.991 172.58ZM19.7207 172.194V172.58C19.7207 172.802 19.7732 173.001 19.8781 173.178C19.983 173.352 20.1643 173.439 20.4218 173.439C20.6722 173.439 20.8487 173.352 20.9513 173.178C21.0562 173.001 21.1086 172.802 21.1086 172.58V172.194C21.1086 171.972 21.0586 171.774 20.9584 171.6C20.8582 171.424 20.6794 171.335 20.4218 171.335C20.1714 171.335 19.9914 171.424 19.8817 171.6C19.7744 171.774 19.7207 171.972 19.7207 172.194ZM19.2629 178.146L24.2994 170.82H25.115L20.0784 178.146H19.2629Z" fill="black"/>
<path d="M14.9281 220.137C14.3892 220.137 13.9301 219.99 13.5509 219.697C13.1718 219.401 12.882 218.973 12.6817 218.412C12.4814 217.85 12.3812 217.17 12.3812 216.373C12.3812 215.582 12.4814 214.906 12.6817 214.345C12.8844 213.782 13.1754 213.353 13.5545 213.057C13.9361 212.759 14.394 212.61 14.9281 212.61C15.4623 212.61 15.919 212.759 16.2982 213.057C16.6797 213.353 16.9707 213.782 17.171 214.345C17.3737 214.906 17.475 215.582 17.475 216.373C17.475 217.17 17.3749 217.85 17.1746 218.412C16.9743 218.973 16.6845 219.401 16.3053 219.697C15.9262 219.99 15.4671 220.137 14.9281 220.137ZM14.9281 219.35C15.4623 219.35 15.8773 219.092 16.173 218.577C16.4687 218.062 16.6165 217.327 16.6165 216.373C16.6165 215.739 16.5486 215.199 16.4126 214.753C16.2791 214.307 16.0859 213.967 15.8332 213.733C15.5828 213.5 15.2811 213.383 14.9281 213.383C14.3987 213.383 13.985 213.644 13.6869 214.166C13.3888 214.686 13.2397 215.422 13.2397 216.373C13.2397 217.008 13.3065 217.547 13.4401 217.99C13.5736 218.434 13.7656 218.771 14.016 219.003C14.2688 219.234 14.5728 219.35 14.9281 219.35ZM22.5548 218.663V218.276C22.5548 218.009 22.6096 217.765 22.7193 217.543C22.8314 217.319 22.9936 217.14 23.2058 217.007C23.4204 216.871 23.6804 216.803 23.9856 216.803C24.2956 216.803 24.5556 216.871 24.7654 217.007C24.9753 217.14 25.1339 217.319 25.2412 217.543C25.3485 217.765 25.4022 218.009 25.4022 218.276V218.663C25.4022 218.93 25.3473 219.175 25.2376 219.4C25.1303 219.621 24.9705 219.8 24.7583 219.936C24.5484 220.07 24.2909 220.137 23.9856 220.137C23.6756 220.137 23.4145 220.07 23.2022 219.936C22.99 219.8 22.829 219.621 22.7193 219.4C22.6096 219.175 22.5548 218.93 22.5548 218.663ZM23.2845 218.276V218.663C23.2845 218.885 23.337 219.084 23.4419 219.26C23.5468 219.434 23.7281 219.521 23.9856 219.521C24.236 219.521 24.4125 219.434 24.515 219.26C24.62 219.084 24.6724 218.885 24.6724 218.663V218.276C24.6724 218.055 24.6223 217.857 24.5222 217.683C24.422 217.506 24.2432 217.418 23.9856 217.418C23.7352 217.418 23.5552 217.506 23.4455 217.683C23.3382 217.857 23.2845 218.055 23.2845 218.276ZM18.9061 214.47V214.084C18.9061 213.817 18.961 213.573 19.0707 213.351C19.1827 213.127 19.3449 212.948 19.5571 212.814C19.7718 212.678 20.0317 212.61 20.337 212.61C20.647 212.61 20.9069 212.678 21.1168 212.814C21.3266 212.948 21.4852 213.127 21.5925 213.351C21.6998 213.573 21.7535 213.817 21.7535 214.084V214.47C21.7535 214.737 21.6986 214.983 21.5889 215.207C21.4816 215.429 21.3219 215.608 21.1096 215.744C20.8998 215.877 20.6422 215.944 20.337 215.944C20.0269 215.944 19.7658 215.877 19.5536 215.744C19.3413 215.608 19.1803 215.429 19.0707 215.207C18.961 214.983 18.9061 214.737 18.9061 214.47ZM19.6358 214.084V214.47C19.6358 214.692 19.6883 214.891 19.7932 215.068C19.8982 215.242 20.0794 215.329 20.337 215.329C20.5874 215.329 20.7638 215.242 20.8664 215.068C20.9713 214.891 21.0238 214.692 21.0238 214.47V214.084C21.0238 213.862 20.9737 213.664 20.8735 213.49C20.7734 213.314 20.5945 213.226 20.337 213.226C20.0866 213.226 19.9065 213.314 19.7968 213.49C19.6895 213.664 19.6358 213.862 19.6358 214.084ZM19.178 220.036L24.2146 212.71H25.0301L19.9935 220.036H19.178Z" fill="black"/>
<path d="M38.292 214.516H77.954V221.396H38.292V214.516Z" fill="#A04CBE"/>
<path d="M38.292 182.866H77.954V214.516H38.292V182.866Z" fill="#710F95"/>
<path d="M38.292 47.3237H77.954V67.2767H38.292V47.3237Z" fill="#C79A00"/>
<path d="M38.292 1.22534H77.954V47.3236H38.292V1.22534Z" fill="#FFCA28"/>
<path d="M38.292 67.2766H77.954V182.866H38.292V67.2766Z" fill="#CCE0FF"/>
<path d="M79.3926 1.22534H119.055V221.396H79.3926V1.22534Z" fill="#F2F2F2"/>
<path d="M120.494 1.22534H160.156V221.396H120.494V1.22534Z" fill="#F2F2F2"/>
<path d="M161.595 1.22534H201.257V221.396H161.595V1.22534Z" fill="#F2F2F2"/>
<path d="M202.696 1.22534H242.358V221.396H202.696V1.22534Z" fill="#F2F2F2"/>
<path d="M243.797 1.22534H283.459V221.396H243.797V1.22534Z" fill="#F2F2F2"/>
<path d="M284.898 1.22534H324.56V221.396H284.898V1.22534Z" fill="#F2F2F2"/>
<path d="M49.838 230.467H50.8968L53.3865 236.548H53.4723L55.962 230.467H57.0208V237.792H56.191V232.226H56.1194L53.8301 237.792H53.0288L50.7394 232.226H50.6679V237.792H49.838V230.467ZM60.9031 237.907C60.4071 237.907 59.9719 237.789 59.5975 237.553C59.2255 237.317 58.9345 236.986 58.7247 236.562C58.5172 236.137 58.4134 235.641 58.4134 235.074C58.4134 234.502 58.5172 234.002 58.7247 233.575C58.9345 233.148 59.2255 232.817 59.5975 232.581C59.9719 232.345 60.4071 232.226 60.9031 232.226C61.3991 232.226 61.8332 232.345 62.2052 232.581C62.5796 232.817 62.8705 233.148 63.078 233.575C63.2879 234.002 63.3928 234.502 63.3928 235.074C63.3928 235.641 63.2879 236.137 63.078 236.562C62.8705 236.986 62.5796 237.317 62.2052 237.553C61.8332 237.789 61.3991 237.907 60.9031 237.907ZM60.9031 237.149C61.2799 237.149 61.5899 237.052 61.8332 236.859C62.0764 236.666 62.2565 236.412 62.3733 236.097C62.4902 235.782 62.5486 235.441 62.5486 235.074C62.5486 234.707 62.4902 234.364 62.3733 234.047C62.2565 233.73 62.0764 233.474 61.8332 233.278C61.5899 233.083 61.2799 232.985 60.9031 232.985C60.5263 232.985 60.2163 233.083 59.9731 233.278C59.7298 233.474 59.5498 233.73 59.4329 234.047C59.3161 234.364 59.2576 234.707 59.2576 235.074C59.2576 235.441 59.3161 235.782 59.4329 236.097C59.5498 236.412 59.7298 236.666 59.9731 236.859C60.2163 237.052 60.5263 237.149 60.9031 237.149ZM65.5116 234.487V237.792H64.6673V232.298H65.4829V233.157H65.5545C65.6833 232.878 65.8788 232.653 66.1411 232.484C66.4034 232.312 66.7421 232.226 67.157 232.226C67.529 232.226 67.8546 232.303 68.1336 232.455C68.4126 232.606 68.6296 232.835 68.7846 233.142C68.9396 233.447 69.0171 233.834 69.0171 234.301V237.792H68.1729V234.358C68.1729 233.927 68.0608 233.591 67.8367 233.35C67.6125 233.106 67.3049 232.985 66.9138 232.985C66.6443 232.985 66.4034 233.043 66.1912 233.16C65.9813 233.277 65.8156 233.447 65.694 233.672C65.5724 233.896 65.5116 234.168 65.5116 234.487Z" fill="black"/>
<path d="M92.0631 231.254V230.467H97.5576V231.254H95.2539V237.792H94.3668V231.254H92.0631ZM101.513 235.546V232.298H102.357V237.792H101.513V236.862H101.456C101.327 237.141 101.127 237.379 100.855 237.574C100.583 237.767 100.24 237.864 99.8248 237.864C99.4814 237.864 99.1761 237.789 98.909 237.639C98.6419 237.486 98.4321 237.257 98.2794 236.952C98.1268 236.644 98.0505 236.257 98.0505 235.789V232.298H98.8947V235.732C98.8947 236.133 99.0068 236.452 99.231 236.691C99.4575 236.929 99.7461 237.048 100.097 237.048C100.306 237.048 100.52 236.995 100.737 236.887C100.956 236.78 101.14 236.616 101.288 236.394C101.438 236.172 101.513 235.889 101.513 235.546ZM106.193 237.907C105.664 237.907 105.207 237.79 104.823 237.556C104.442 237.32 104.147 236.991 103.94 236.569C103.734 236.145 103.632 235.651 103.632 235.088C103.632 234.525 103.734 234.029 103.94 233.6C104.147 233.168 104.436 232.832 104.805 232.591C105.177 232.348 105.611 232.226 106.107 232.226C106.393 232.226 106.676 232.274 106.955 232.37C107.234 232.465 107.488 232.62 107.717 232.835C107.946 233.047 108.128 233.328 108.264 233.679C108.4 234.029 108.468 234.461 108.468 234.974V235.331H104.233V234.602H107.61C107.61 234.292 107.548 234.015 107.424 233.772C107.302 233.529 107.128 233.337 106.901 233.196C106.677 233.055 106.413 232.985 106.107 232.985C105.771 232.985 105.48 233.068 105.234 233.235C104.991 233.4 104.804 233.614 104.673 233.879C104.542 234.144 104.476 234.428 104.476 234.73V235.217C104.476 235.632 104.548 235.984 104.691 236.272C104.836 236.558 105.038 236.777 105.295 236.927C105.553 237.075 105.852 237.149 106.193 237.149C106.415 237.149 106.615 237.118 106.794 237.056C106.975 236.991 107.132 236.896 107.263 236.769C107.394 236.641 107.495 236.481 107.567 236.29L108.382 236.519C108.296 236.796 108.152 237.039 107.949 237.249C107.747 237.456 107.496 237.618 107.198 237.735C106.9 237.85 106.565 237.907 106.193 237.907Z" fill="black"/>
<path d="M132.836 237.792L130.832 230.467H131.734L133.265 236.433H133.336L134.896 230.467H135.898L137.457 236.433H137.529L139.06 230.467H139.961L137.958 237.792H137.042L135.425 231.955H135.368L133.751 237.792H132.836ZM142.73 237.907C142.201 237.907 141.744 237.79 141.36 237.556C140.978 237.32 140.684 236.991 140.476 236.569C140.271 236.145 140.169 235.651 140.169 235.088C140.169 234.525 140.271 234.029 140.476 233.6C140.684 233.168 140.972 232.832 141.342 232.591C141.714 232.348 142.148 232.226 142.644 232.226C142.93 232.226 143.213 232.274 143.492 232.37C143.771 232.465 144.025 232.62 144.254 232.835C144.483 233.047 144.665 233.328 144.801 233.679C144.937 234.029 145.005 234.461 145.005 234.974V235.331H140.77V234.602H144.147C144.147 234.292 144.085 234.015 143.961 233.772C143.839 233.529 143.665 233.337 143.438 233.196C143.214 233.055 142.949 232.985 142.644 232.985C142.308 232.985 142.017 233.068 141.771 233.235C141.528 233.4 141.341 233.614 141.21 233.879C141.079 234.144 141.013 234.428 141.013 234.73V235.217C141.013 235.632 141.085 235.984 141.228 236.272C141.373 236.558 141.575 236.777 141.832 236.927C142.09 237.075 142.389 237.149 142.73 237.149C142.952 237.149 143.152 237.118 143.331 237.056C143.512 236.991 143.668 236.896 143.8 236.769C143.931 236.641 144.032 236.481 144.104 236.29L144.919 236.519C144.833 236.796 144.689 237.039 144.486 237.249C144.284 237.456 144.033 237.618 143.735 237.735C143.437 237.85 143.102 237.907 142.73 237.907ZM148.35 237.907C147.892 237.907 147.488 237.791 147.137 237.56C146.787 237.326 146.512 236.997 146.315 236.573C146.117 236.146 146.018 235.641 146.018 235.06C146.018 234.482 146.117 233.982 146.315 233.557C146.512 233.133 146.788 232.805 147.141 232.573C147.494 232.342 147.902 232.226 148.364 232.226C148.722 232.226 149.005 232.286 149.212 232.405C149.422 232.522 149.582 232.656 149.691 232.806C149.803 232.954 149.89 233.075 149.952 233.171H150.024V230.467H150.868V237.792H150.053V236.948H149.952C149.89 237.048 149.802 237.175 149.688 237.327C149.573 237.478 149.41 237.612 149.198 237.732C148.985 237.849 148.703 237.907 148.35 237.907ZM148.464 237.149C148.803 237.149 149.089 237.06 149.323 236.884C149.557 236.705 149.734 236.458 149.856 236.143C149.978 235.826 150.038 235.46 150.038 235.045C150.038 234.635 149.979 234.276 149.859 233.969C149.74 233.659 149.564 233.418 149.33 233.246C149.096 233.072 148.808 232.985 148.464 232.985C148.107 232.985 147.809 233.077 147.57 233.26C147.334 233.442 147.156 233.688 147.037 234.001C146.92 234.311 146.862 234.659 146.862 235.045C146.862 235.436 146.921 235.792 147.041 236.111C147.162 236.428 147.341 236.681 147.577 236.87C147.816 237.056 148.111 237.149 148.464 237.149Z" fill="black"/>
<path d="M173.464 231.254V230.467H178.959V231.254H176.655V237.792H175.768V231.254H173.464ZM181.044 234.487V237.792H180.199V230.467H181.044V233.157H181.115C181.244 232.873 181.437 232.647 181.695 232.48C181.955 232.311 182.3 232.226 182.732 232.226C183.106 232.226 183.434 232.302 183.716 232.452C183.997 232.6 184.215 232.827 184.37 233.135C184.528 233.44 184.606 233.829 184.606 234.301V237.792H183.762V234.358C183.762 233.922 183.649 233.585 183.422 233.346C183.198 233.105 182.887 232.985 182.489 232.985C182.212 232.985 181.964 233.043 181.745 233.16C181.528 233.277 181.356 233.447 181.23 233.672C181.106 233.896 181.044 234.168 181.044 234.487ZM189.599 235.546V232.298H190.444V237.792H189.599V236.862H189.542C189.413 237.141 189.213 237.379 188.941 237.574C188.669 237.767 188.326 237.864 187.911 237.864C187.568 237.864 187.262 237.789 186.995 237.639C186.728 237.486 186.518 237.257 186.366 236.952C186.213 236.644 186.137 236.257 186.137 235.789V232.298H186.981V235.732C186.981 236.133 187.093 236.452 187.317 236.691C187.544 236.929 187.832 237.048 188.183 237.048C188.393 237.048 188.606 236.995 188.823 236.887C189.043 236.78 189.226 236.616 189.374 236.394C189.524 236.172 189.599 235.889 189.599 235.546Z" fill="black"/>
<path d="M217.912 237.792V230.467H222.305V231.254H218.799V233.729H221.976V234.516H218.799V237.792H217.912ZM223.637 237.792V232.298H224.452V233.128H224.51C224.61 232.856 224.791 232.635 225.053 232.466C225.316 232.297 225.611 232.212 225.94 232.212C226.002 232.212 226.08 232.213 226.173 232.216C226.266 232.218 226.336 232.222 226.384 232.226V233.085C226.355 233.078 226.29 233.067 226.187 233.053C226.087 233.036 225.981 233.028 225.869 233.028C225.602 233.028 225.363 233.084 225.153 233.196C224.946 233.306 224.781 233.458 224.66 233.654C224.541 233.847 224.481 234.068 224.481 234.316V237.792H223.637ZM227.371 237.792V232.298H228.215V237.792H227.371ZM227.8 231.382C227.635 231.382 227.493 231.326 227.374 231.214C227.257 231.102 227.199 230.967 227.199 230.81C227.199 230.653 227.257 230.518 227.374 230.406C227.493 230.294 227.635 230.238 227.8 230.238C227.964 230.238 228.105 230.294 228.222 230.406C228.341 230.518 228.401 230.653 228.401 230.81C228.401 230.967 228.341 231.102 228.222 231.214C228.105 231.326 227.964 231.382 227.8 231.382Z" fill="black"/>
<path d="M260.944 232.298C260.901 231.936 260.727 231.654 260.422 231.454C260.116 231.254 259.742 231.153 259.298 231.153C258.974 231.153 258.69 231.206 258.447 231.311C258.206 231.416 258.018 231.56 257.882 231.744C257.748 231.927 257.682 232.136 257.682 232.37C257.682 232.565 257.728 232.733 257.821 232.874C257.917 233.012 258.038 233.128 258.186 233.221C258.334 233.312 258.489 233.387 258.651 233.446C258.813 233.504 258.962 233.55 259.098 233.586L259.842 233.786C260.033 233.836 260.245 233.905 260.479 233.994C260.715 234.082 260.94 234.202 261.155 234.355C261.372 234.505 261.551 234.698 261.692 234.934C261.832 235.17 261.903 235.46 261.903 235.804C261.903 236.199 261.799 236.557 261.591 236.877C261.386 237.196 261.086 237.45 260.69 237.639C260.296 237.827 259.818 237.921 259.256 237.921C258.731 237.921 258.277 237.837 257.893 237.667C257.511 237.498 257.211 237.262 256.991 236.959C256.774 236.656 256.651 236.304 256.623 235.904H257.539C257.562 236.18 257.655 236.409 257.818 236.591C257.982 236.769 258.19 236.903 258.44 236.991C258.693 237.077 258.965 237.12 259.256 237.12C259.594 237.12 259.898 237.065 260.168 236.955C260.437 236.843 260.651 236.688 260.808 236.49C260.965 236.29 261.044 236.056 261.044 235.789C261.044 235.546 260.976 235.348 260.84 235.195C260.704 235.043 260.525 234.919 260.304 234.823C260.082 234.728 259.842 234.645 259.585 234.573L258.683 234.316C258.111 234.151 257.658 233.916 257.324 233.611C256.99 233.306 256.823 232.906 256.823 232.412C256.823 232.002 256.934 231.645 257.156 231.339C257.38 231.032 257.68 230.793 258.057 230.624C258.436 230.452 258.86 230.366 259.327 230.366C259.799 230.366 260.219 230.451 260.586 230.62C260.953 230.787 261.244 231.016 261.459 231.307C261.676 231.598 261.791 231.928 261.802 232.298H260.944ZM264.849 237.921C264.501 237.921 264.185 237.856 263.902 237.725C263.618 237.591 263.392 237.399 263.225 237.149C263.059 236.896 262.975 236.591 262.975 236.233C262.975 235.918 263.037 235.663 263.161 235.467C263.285 235.269 263.451 235.114 263.658 235.002C263.866 234.89 264.095 234.807 264.345 234.752C264.598 234.695 264.852 234.649 265.107 234.616C265.441 234.573 265.712 234.541 265.919 234.519C266.129 234.496 266.282 234.456 266.377 234.401C266.475 234.347 266.524 234.251 266.524 234.115V234.087C266.524 233.734 266.427 233.459 266.234 233.264C266.043 233.068 265.753 232.971 265.365 232.971C264.962 232.971 264.646 233.059 264.417 233.235C264.188 233.412 264.027 233.6 263.934 233.8L263.132 233.514C263.276 233.18 263.466 232.92 263.705 232.734C263.946 232.546 264.208 232.415 264.492 232.341C264.778 232.265 265.059 232.226 265.336 232.226C265.512 232.226 265.715 232.248 265.944 232.291C266.175 232.331 266.398 232.416 266.613 232.545C266.83 232.674 267.01 232.868 267.153 233.128C267.296 233.388 267.368 233.736 267.368 234.172V237.792H266.524V237.048H266.481C266.423 237.168 266.328 237.295 266.194 237.431C266.061 237.567 265.883 237.683 265.661 237.778C265.44 237.874 265.169 237.921 264.849 237.921ZM264.978 237.163C265.312 237.163 265.594 237.097 265.822 236.966C266.054 236.835 266.228 236.666 266.345 236.458C266.464 236.251 266.524 236.033 266.524 235.804V235.031C266.488 235.074 266.409 235.113 266.287 235.149C266.168 235.182 266.03 235.212 265.873 235.238C265.718 235.262 265.566 235.284 265.418 235.303C265.273 235.319 265.155 235.334 265.064 235.346C264.845 235.374 264.64 235.421 264.449 235.485C264.26 235.547 264.108 235.641 263.991 235.768C263.877 235.892 263.819 236.061 263.819 236.276C263.819 236.569 263.928 236.791 264.145 236.941C264.364 237.089 264.642 237.163 264.978 237.163ZM271.284 232.298V233.013H268.437V232.298H271.284ZM269.267 230.982H270.111V236.219C270.111 236.457 270.145 236.636 270.214 236.755C270.286 236.872 270.377 236.951 270.486 236.991C270.598 237.029 270.716 237.048 270.84 237.048C270.933 237.048 271.01 237.044 271.069 237.034C271.129 237.022 271.177 237.013 271.212 237.006L271.384 237.764C271.327 237.785 271.247 237.807 271.145 237.828C271.042 237.852 270.912 237.864 270.755 237.864C270.516 237.864 270.282 237.813 270.054 237.71C269.827 237.608 269.639 237.451 269.488 237.242C269.34 237.032 269.267 236.767 269.267 236.447V230.982Z" fill="black"/>
<path d="M300.649 232.298C300.606 231.936 300.432 231.654 300.127 231.454C299.822 231.254 299.447 231.153 299.004 231.153C298.679 231.153 298.395 231.206 298.152 231.311C297.911 231.416 297.723 231.56 297.587 231.744C297.454 231.927 297.387 232.136 297.387 232.37C297.387 232.565 297.433 232.733 297.526 232.874C297.622 233.012 297.743 233.128 297.891 233.221C298.039 233.312 298.194 233.387 298.356 233.446C298.518 233.504 298.667 233.55 298.803 233.586L299.547 233.786C299.738 233.836 299.95 233.905 300.184 233.994C300.42 234.082 300.645 234.202 300.86 234.355C301.077 234.505 301.256 234.698 301.397 234.934C301.537 235.17 301.608 235.46 301.608 235.804C301.608 236.199 301.504 236.557 301.297 236.877C301.091 237.196 300.791 237.45 300.395 237.639C300.002 237.827 299.523 237.921 298.961 237.921C298.436 237.921 297.982 237.837 297.598 237.667C297.216 237.498 296.916 237.262 296.696 236.959C296.479 236.656 296.357 236.304 296.328 235.904H297.244C297.267 236.18 297.361 236.409 297.523 236.591C297.687 236.769 297.895 236.903 298.145 236.991C298.398 237.077 298.67 237.12 298.961 237.12C299.299 237.12 299.603 237.065 299.873 236.955C300.142 236.843 300.356 236.688 300.513 236.49C300.671 236.29 300.749 236.056 300.749 235.789C300.749 235.546 300.681 235.348 300.545 235.195C300.409 235.043 300.231 234.919 300.009 234.823C299.787 234.728 299.547 234.645 299.29 234.573L298.388 234.316C297.816 234.151 297.363 233.916 297.029 233.611C296.695 233.306 296.528 232.906 296.528 232.412C296.528 232.002 296.639 231.645 296.861 231.339C297.085 231.032 297.386 230.793 297.762 230.624C298.142 230.452 298.565 230.366 299.032 230.366C299.504 230.366 299.924 230.451 300.291 230.62C300.659 230.787 300.95 231.016 301.164 231.307C301.381 231.598 301.496 231.928 301.508 232.298H300.649ZM306.4 235.546V232.298H307.245V237.792H306.4V236.862H306.343C306.214 237.141 306.014 237.379 305.742 237.574C305.47 237.767 305.127 237.864 304.712 237.864C304.369 237.864 304.063 237.789 303.796 237.639C303.529 237.486 303.319 237.257 303.167 236.952C303.014 236.644 302.938 236.257 302.938 235.789V232.298H303.782V235.732C303.782 236.133 303.894 236.452 304.118 236.691C304.345 236.929 304.633 237.048 304.984 237.048C305.194 237.048 305.407 236.995 305.624 236.887C305.844 236.78 306.027 236.616 306.175 236.394C306.325 236.172 306.4 235.889 306.4 235.546ZM309.621 234.487V237.792H308.777V232.298H309.592V233.157H309.664C309.793 232.878 309.988 232.653 310.25 232.484C310.513 232.312 310.851 232.226 311.266 232.226C311.638 232.226 311.964 232.303 312.243 232.455C312.522 232.606 312.739 232.835 312.894 233.142C313.049 233.447 313.126 233.834 313.126 234.301V237.792H312.282V234.358C312.282 233.927 312.17 233.591 311.946 233.35C311.722 233.106 311.414 232.985 311.023 232.985C310.754 232.985 310.513 233.043 310.301 233.16C310.091 233.277 309.925 233.447 309.803 233.672C309.682 233.896 309.621 234.168 309.621 234.487Z" fill="black"/>
<path d="M2.99809 280.244L0.994901 272.918H1.89634L3.42734 278.884H3.49889L5.05851 272.918H6.0601L7.61973 278.884H7.69127L9.22228 272.918H10.1237L8.12052 280.244H7.20478L5.58792 274.406H5.53069L3.91383 280.244H2.99809ZM12.8926 280.358C12.3632 280.358 11.9065 280.241 11.5226 280.008C11.141 279.771 10.8465 279.442 10.639 279.02C10.4339 278.596 10.3314 278.102 10.3314 277.539C10.3314 276.977 10.4339 276.481 10.639 276.051C10.8465 275.62 11.1351 275.283 11.5047 275.043C11.8767 274.799 12.3107 274.678 12.8068 274.678C13.0929 274.678 13.3755 274.725 13.6545 274.821C13.9336 274.916 14.1875 275.071 14.4165 275.286C14.6454 275.498 14.8278 275.779 14.9638 276.13C15.0997 276.481 15.1677 276.912 15.1677 277.425V277.783H10.9323V277.053H14.3092C14.3092 276.743 14.2471 276.466 14.1231 276.223C14.0015 275.98 13.8274 275.788 13.6009 275.647C13.3767 275.506 13.112 275.436 12.8068 275.436C12.4705 275.436 12.1796 275.519 11.9339 275.686C11.6907 275.851 11.5035 276.066 11.3723 276.33C11.2412 276.595 11.1756 276.879 11.1756 277.182V277.668C11.1756 278.083 11.2471 278.435 11.3902 278.723C11.5357 279.01 11.7372 279.228 11.9948 279.378C12.2523 279.526 12.5516 279.6 12.8926 279.6C13.1144 279.6 13.3147 279.569 13.4936 279.507C13.6748 279.442 13.831 279.347 13.9622 279.221C14.0933 279.092 14.1947 278.932 14.2662 278.741L15.0818 278.97C14.996 279.247 14.8517 279.49 14.649 279.7C14.4463 279.907 14.1959 280.07 13.8978 280.186C13.5997 280.301 13.2646 280.358 12.8926 280.358ZM18.7414 280.358C18.212 280.358 17.7553 280.241 17.3714 280.008C16.9898 279.771 16.6953 279.442 16.4878 279.02C16.2827 278.596 16.1802 278.102 16.1802 277.539C16.1802 276.977 16.2827 276.481 16.4878 276.051C16.6953 275.62 16.9838 275.283 17.3535 275.043C17.7255 274.799 18.1595 274.678 18.6556 274.678C18.9417 274.678 19.2243 274.725 19.5033 274.821C19.7824 274.916 20.0363 275.071 20.2653 275.286C20.4942 275.498 20.6766 275.779 20.8126 276.13C20.9485 276.481 21.0165 276.912 21.0165 277.425V277.783H16.7811V277.053H20.1579C20.1579 276.743 20.0959 276.466 19.9719 276.223C19.8503 275.98 19.6762 275.788 19.4497 275.647C19.2255 275.506 18.9608 275.436 18.6556 275.436C18.3193 275.436 18.0284 275.519 17.7827 275.686C17.5395 275.851 17.3523 276.066 17.2211 276.33C17.09 276.595 17.0244 276.879 17.0244 277.182V277.668C17.0244 278.083 17.0959 278.435 17.239 278.723C17.3845 279.01 17.586 279.228 17.8436 279.378C18.1011 279.526 18.4004 279.6 18.7414 279.6C18.9632 279.6 19.1635 279.569 19.3424 279.507C19.5236 279.442 19.6798 279.347 19.811 279.221C19.9421 279.092 20.0435 278.932 20.115 278.741L20.9306 278.97C20.8448 279.247 20.7005 279.49 20.4978 279.7C20.2951 279.907 20.0447 280.07 19.7466 280.186C19.4485 280.301 19.1134 280.358 18.7414 280.358ZM23.0735 278.24L23.0592 277.196H23.2309L25.6347 274.749H26.6792L24.118 277.339H24.0465L23.0735 278.24ZM22.2865 280.244V272.918H23.1307V280.244H22.2865ZM25.7778 280.244L23.6315 277.525L24.2325 276.938L26.8509 280.244H25.7778ZM33.0174 274.749V275.465H30.0556V274.749H33.0174ZM30.9427 280.244V273.991C30.9427 273.676 31.0166 273.414 31.1645 273.204C31.3123 272.994 31.5043 272.837 31.7404 272.732C31.9765 272.627 32.2257 272.574 32.488 272.574C32.6955 272.574 32.8648 272.591 32.996 272.624C33.1271 272.658 33.2249 272.689 33.2893 272.717L33.046 273.447C33.0031 273.433 32.9435 273.415 32.8672 273.393C32.7933 273.372 32.6955 273.361 32.5739 273.361C32.2948 273.361 32.0933 273.432 31.9693 273.572C31.8477 273.713 31.7869 273.919 31.7869 274.191V280.244H30.9427ZM34.1864 280.244V274.749H35.002V275.579H35.0593C35.1594 275.307 35.3407 275.087 35.603 274.917C35.8653 274.748 36.161 274.663 36.4901 274.663C36.5521 274.663 36.6296 274.665 36.7226 274.667C36.8156 274.669 36.886 274.673 36.9337 274.678V275.536C36.9051 275.529 36.8395 275.518 36.7369 275.504C36.6368 275.487 36.5307 275.479 36.4186 275.479C36.1515 275.479 35.913 275.535 35.7031 275.647C35.4957 275.757 35.3311 275.909 35.2095 276.105C35.0903 276.298 35.0307 276.519 35.0307 276.767V280.244H34.1864ZM39.9852 280.358C39.4891 280.358 39.0539 280.24 38.6795 280.004C38.3075 279.768 38.0166 279.438 37.8067 279.013C37.5992 278.589 37.4955 278.093 37.4955 277.525C37.4955 276.953 37.5992 276.453 37.8067 276.026C38.0166 275.599 38.3075 275.268 38.6795 275.032C39.0539 274.796 39.4891 274.678 39.9852 274.678C40.4812 274.678 40.9152 274.796 41.2872 275.032C41.6616 275.268 41.9526 275.599 42.1601 276.026C42.3699 276.453 42.4748 276.953 42.4748 277.525C42.4748 278.093 42.3699 278.589 42.1601 279.013C41.9526 279.438 41.6616 279.768 41.2872 280.004C40.9152 280.24 40.4812 280.358 39.9852 280.358ZM39.9852 279.6C40.362 279.6 40.672 279.503 40.9152 279.31C41.1585 279.117 41.3385 278.863 41.4554 278.548C41.5722 278.233 41.6306 277.892 41.6306 277.525C41.6306 277.158 41.5722 276.816 41.4554 276.498C41.3385 276.181 41.1585 275.925 40.9152 275.729C40.672 275.534 40.362 275.436 39.9852 275.436C39.6084 275.436 39.2984 275.534 39.0551 275.729C38.8119 275.925 38.6318 276.181 38.515 276.498C38.3981 276.816 38.3397 277.158 38.3397 277.525C38.3397 277.892 38.3981 278.233 38.515 278.548C38.6318 278.863 38.8119 279.117 39.0551 279.31C39.2984 279.503 39.6084 279.6 39.9852 279.6ZM43.7494 280.244V274.749H44.565V275.608H44.6365C44.751 275.314 44.9358 275.087 45.191 274.924C45.4461 274.76 45.7526 274.678 46.1103 274.678C46.4728 274.678 46.7745 274.76 47.0153 274.924C47.2586 275.087 47.4481 275.314 47.5841 275.608H47.6413C47.782 275.324 47.9931 275.099 48.2745 274.932C48.5559 274.762 48.8933 274.678 49.2868 274.678C49.778 274.678 50.1799 274.831 50.4923 275.139C50.8047 275.444 50.9609 275.92 50.9609 276.566V280.244H50.1167V276.566C50.1167 276.161 50.0058 275.871 49.784 275.697C49.5622 275.523 49.3011 275.436 49.0006 275.436C48.6143 275.436 48.315 275.553 48.1028 275.787C47.8905 276.018 47.7844 276.311 47.7844 276.667V280.244H46.9259V276.481C46.9259 276.168 46.8245 275.917 46.6218 275.726C46.4191 275.533 46.158 275.436 45.8384 275.436C45.619 275.436 45.414 275.494 45.2232 275.611C45.0348 275.728 44.8822 275.89 44.7653 276.098C44.6508 276.303 44.5936 276.54 44.5936 276.81V280.244H43.7494ZM55.4237 272.918H56.4826L58.9723 278.999H59.0581L61.5478 272.918H62.6066V280.244H61.7767V274.678H61.7052L59.4158 280.244H58.6145L56.3252 274.678H56.2536V280.244H55.4237V272.918ZM66.4889 280.358C65.9929 280.358 65.5576 280.24 65.1832 280.004C64.8112 279.768 64.5203 279.438 64.3104 279.013C64.1029 278.589 63.9992 278.093 63.9992 277.525C63.9992 276.953 64.1029 276.453 64.3104 276.026C64.5203 275.599 64.8112 275.268 65.1832 275.032C65.5576 274.796 65.9929 274.678 66.4889 274.678C66.9849 274.678 67.4189 274.796 67.791 275.032C68.1654 275.268 68.4563 275.599 68.6638 276.026C68.8736 276.453 68.9786 276.953 68.9786 277.525C68.9786 278.093 68.8736 278.589 68.6638 279.013C68.4563 279.438 68.1654 279.768 67.791 280.004C67.4189 280.24 66.9849 280.358 66.4889 280.358ZM66.4889 279.6C66.8657 279.6 67.1757 279.503 67.4189 279.31C67.6622 279.117 67.8422 278.863 67.9591 278.548C68.0759 278.233 68.1344 277.892 68.1344 277.525C68.1344 277.158 68.0759 276.816 67.9591 276.498C67.8422 276.181 67.6622 275.925 67.4189 275.729C67.1757 275.534 66.8657 275.436 66.4889 275.436C66.1121 275.436 65.8021 275.534 65.5588 275.729C65.3156 275.925 65.1355 276.181 65.0187 276.498C64.9018 276.816 64.8434 277.158 64.8434 277.525C64.8434 277.892 64.9018 278.233 65.0187 278.548C65.1355 278.863 65.3156 279.117 65.5588 279.31C65.8021 279.503 66.1121 279.6 66.4889 279.6ZM71.0973 276.938V280.244H70.2531V274.749H71.0687V275.608H71.1402C71.269 275.329 71.4646 275.105 71.7269 274.935C71.9892 274.764 72.3278 274.678 72.7428 274.678C73.1148 274.678 73.4403 274.754 73.7193 274.907C73.9984 275.057 74.2154 275.286 74.3704 275.593C74.5254 275.899 74.6029 276.285 74.6029 276.752V280.244H73.7587V276.81C73.7587 276.378 73.6466 276.042 73.4224 275.801C73.1983 275.558 72.8906 275.436 72.4995 275.436C72.2301 275.436 71.9892 275.494 71.777 275.611C71.5671 275.728 71.4014 275.899 71.2797 276.123C71.1581 276.347 71.0973 276.619 71.0973 276.938ZM78.9361 280.244V279.6L81.3542 276.953C81.638 276.643 81.8717 276.373 82.0553 276.144C82.239 275.913 82.3749 275.696 82.4631 275.493C82.5538 275.288 82.5991 275.074 82.5991 274.849C82.5991 274.592 82.5371 274.369 82.4131 274.18C82.2914 273.992 82.1245 273.847 81.9123 273.744C81.7 273.641 81.4615 273.59 81.1968 273.59C80.9154 273.59 80.6698 273.649 80.4599 273.765C80.2525 273.88 80.0915 274.041 79.977 274.248C79.865 274.456 79.8089 274.699 79.8089 274.978H78.9647C78.9647 274.549 79.0637 274.172 79.2616 273.848C79.4595 273.523 79.729 273.271 80.07 273.089C80.4134 272.908 80.7986 272.818 81.2254 272.818C81.6547 272.818 82.0351 272.908 82.3666 273.089C82.698 273.271 82.958 273.515 83.1464 273.823C83.3348 274.13 83.429 274.473 83.429 274.849C83.429 275.119 83.3801 275.382 83.2823 275.64C83.1869 275.895 83.02 276.18 82.7815 276.495C82.5454 276.807 82.2175 277.189 81.7978 277.64L80.1523 279.399V279.457H83.5577V280.244H78.9361ZM87.5965 272.918V280.244H86.7094V273.848H86.6665L84.8779 275.035V274.134L86.7094 272.918H87.5965ZM95.4415 272.918H96.3287V278.155C96.3287 278.622 96.2428 279.019 96.0711 279.346C95.8994 279.673 95.6574 279.921 95.345 280.09C95.0326 280.259 94.6641 280.344 94.2396 280.344C93.839 280.344 93.4825 280.271 93.1701 280.126C92.8577 279.978 92.612 279.768 92.4332 279.496C92.2543 279.224 92.1649 278.901 92.1649 278.527H93.0377C93.0377 278.734 93.089 278.915 93.1915 279.07C93.2965 279.223 93.4395 279.342 93.6208 279.428C93.802 279.514 94.0083 279.557 94.2396 279.557C94.4948 279.557 94.7118 279.503 94.8907 279.396C95.0695 279.289 95.2055 279.131 95.2985 278.924C95.3938 278.714 95.4415 278.457 95.4415 278.155V272.918ZM101.441 277.997V274.749H102.285V280.244H101.441V279.314H101.383C101.255 279.593 101.054 279.83 100.782 280.025C100.511 280.219 100.167 280.315 99.7522 280.315C99.4088 280.315 99.1035 280.24 98.8364 280.09C98.5693 279.937 98.3595 279.708 98.2069 279.403C98.0542 279.095 97.9779 278.708 97.9779 278.24V274.749H98.8221V278.183C98.8221 278.584 98.9342 278.903 99.1584 279.142C99.3849 279.38 99.6735 279.5 100.024 279.5C100.234 279.5 100.447 279.446 100.664 279.339C100.884 279.231 101.067 279.067 101.215 278.845C101.365 278.623 101.441 278.341 101.441 277.997ZM104.661 276.938V280.244H103.817V274.749H104.632V275.608H104.704C104.833 275.329 105.028 275.105 105.291 274.935C105.553 274.764 105.892 274.678 106.307 274.678C106.679 274.678 107.004 274.754 107.283 274.907C107.562 275.057 107.779 275.286 107.934 275.593C108.089 275.899 108.167 276.285 108.167 276.752V280.244H107.322V276.81C107.322 276.378 107.21 276.042 106.986 275.801C106.762 275.558 106.454 275.436 106.063 275.436C105.794 275.436 105.553 275.494 105.341 275.611C105.131 275.728 104.965 275.899 104.844 276.123C104.722 276.347 104.661 276.619 104.661 276.938ZM114.904 274.749V275.465H112.056V274.749H114.904ZM112.886 273.433H113.73V278.67C113.73 278.908 113.765 279.087 113.834 279.206C113.906 279.323 113.996 279.402 114.106 279.442C114.218 279.481 114.336 279.5 114.46 279.5C114.553 279.5 114.629 279.495 114.689 279.485C114.749 279.473 114.796 279.464 114.832 279.457L115.004 280.215C114.947 280.236 114.867 280.258 114.764 280.279C114.662 280.303 114.532 280.315 114.374 280.315C114.136 280.315 113.902 280.264 113.673 280.161C113.447 280.059 113.258 279.903 113.108 279.693C112.96 279.483 112.886 279.218 112.886 278.899V273.433ZM118.333 280.358C117.837 280.358 117.401 280.24 117.027 280.004C116.655 279.768 116.364 279.438 116.154 279.013C115.947 278.589 115.843 278.093 115.843 277.525C115.843 276.953 115.947 276.453 116.154 276.026C116.364 275.599 116.655 275.268 117.027 275.032C117.401 274.796 117.837 274.678 118.333 274.678C118.829 274.678 119.263 274.796 119.635 275.032C120.009 275.268 120.3 275.599 120.507 276.026C120.717 276.453 120.822 276.953 120.822 277.525C120.822 278.093 120.717 278.589 120.507 279.013C120.3 279.438 120.009 279.768 119.635 280.004C119.263 280.24 118.829 280.358 118.333 280.358ZM118.333 279.6C118.709 279.6 119.019 279.503 119.263 279.31C119.506 279.117 119.686 278.863 119.803 278.548C119.92 278.233 119.978 277.892 119.978 277.525C119.978 277.158 119.92 276.816 119.803 276.498C119.686 276.181 119.506 275.925 119.263 275.729C119.019 275.534 118.709 275.436 118.333 275.436C117.956 275.436 117.646 275.534 117.403 275.729C117.159 275.925 116.979 276.181 116.862 276.498C116.746 276.816 116.687 277.158 116.687 277.525C116.687 277.892 116.746 278.233 116.862 278.548C116.979 278.863 117.159 279.117 117.403 279.31C117.646 279.503 117.956 279.6 118.333 279.6ZM129.037 274.749C128.994 274.387 128.82 274.105 128.514 273.905C128.209 273.705 127.835 273.605 127.391 273.605C127.067 273.605 126.783 273.657 126.54 273.762C126.299 273.867 126.111 274.011 125.975 274.195C125.841 274.378 125.774 274.587 125.774 274.821C125.774 275.016 125.821 275.184 125.914 275.325C126.009 275.463 126.131 275.579 126.279 275.672C126.427 275.763 126.582 275.838 126.744 275.897C126.906 275.955 127.055 276.001 127.191 276.037L127.935 276.237C128.126 276.287 128.338 276.357 128.572 276.445C128.808 276.533 129.033 276.653 129.248 276.806C129.465 276.956 129.644 277.149 129.784 277.386C129.925 277.622 129.995 277.911 129.995 278.255C129.995 278.651 129.892 279.008 129.684 279.328C129.479 279.647 129.179 279.901 128.783 280.09C128.389 280.278 127.911 280.372 127.348 280.372C126.824 280.372 126.369 280.288 125.985 280.118C125.604 279.949 125.303 279.713 125.084 279.41C124.867 279.107 124.744 278.756 124.715 278.355H125.631C125.655 278.632 125.748 278.86 125.91 279.042C126.075 279.221 126.282 279.354 126.533 279.442C126.785 279.528 127.057 279.571 127.348 279.571C127.687 279.571 127.991 279.516 128.26 279.407C128.53 279.295 128.743 279.14 128.901 278.942C129.058 278.741 129.137 278.508 129.137 278.24C129.137 277.997 129.069 277.799 128.933 277.647C128.797 277.494 128.618 277.37 128.396 277.275C128.175 277.179 127.935 277.096 127.677 277.024L126.776 276.767C126.204 276.602 125.75 276.367 125.417 276.062C125.083 275.757 124.916 275.357 124.916 274.864C124.916 274.453 125.027 274.096 125.248 273.791C125.473 273.483 125.773 273.244 126.15 273.075C126.529 272.903 126.952 272.818 127.42 272.818C127.892 272.818 128.312 272.902 128.679 273.072C129.046 273.238 129.337 273.467 129.552 273.758C129.769 274.049 129.883 274.38 129.895 274.749H129.037ZM134.788 277.997V274.749H135.632V280.244H134.788V279.314H134.731C134.602 279.593 134.402 279.83 134.13 280.025C133.858 280.219 133.514 280.315 133.1 280.315C132.756 280.315 132.451 280.24 132.184 280.09C131.917 279.937 131.707 279.708 131.554 279.403C131.402 279.095 131.325 278.708 131.325 278.24V274.749H132.169V278.183C132.169 278.584 132.282 278.903 132.506 279.142C132.732 279.38 133.021 279.5 133.371 279.5C133.581 279.5 133.795 279.446 134.012 279.339C134.231 279.231 134.415 279.067 134.563 278.845C134.713 278.623 134.788 278.341 134.788 277.997ZM138.008 276.938V280.244H137.164V274.749H137.98V275.608H138.051C138.18 275.329 138.376 275.105 138.638 274.935C138.9 274.764 139.239 274.678 139.654 274.678C140.026 274.678 140.351 274.754 140.63 274.907C140.909 275.057 141.127 275.286 141.282 275.593C141.437 275.899 141.514 276.285 141.514 276.752V280.244H140.67V276.81C140.67 276.378 140.558 276.042 140.334 275.801C140.109 275.558 139.802 275.436 139.411 275.436C139.141 275.436 138.9 275.494 138.688 275.611C138.478 275.728 138.313 275.899 138.191 276.123C138.069 276.347 138.008 276.619 138.008 276.938ZM145.847 280.244V279.6L148.265 276.953C148.549 276.643 148.783 276.373 148.966 276.144C149.15 275.913 149.286 275.696 149.374 275.493C149.465 275.288 149.51 275.074 149.51 274.849C149.51 274.592 149.448 274.369 149.324 274.18C149.203 273.992 149.036 273.847 148.823 273.744C148.611 273.641 148.373 273.59 148.108 273.59C147.827 273.59 147.581 273.649 147.371 273.765C147.164 273.88 147.003 274.041 146.888 274.248C146.776 274.456 146.72 274.699 146.72 274.978H145.876C145.876 274.549 145.975 274.172 146.173 273.848C146.371 273.523 146.64 273.271 146.981 273.089C147.325 272.908 147.71 272.818 148.137 272.818C148.566 272.818 148.946 272.908 149.278 273.089C149.609 273.271 149.869 273.515 150.058 273.823C150.246 274.13 150.34 274.473 150.34 274.849C150.34 275.119 150.291 275.382 150.193 275.64C150.098 275.895 149.931 276.18 149.693 276.495C149.457 276.807 149.129 277.189 148.709 277.64L147.063 279.399V279.457H150.469V280.244H145.847ZM152.161 280.244L155.438 273.762V273.705H151.66V272.918H156.353V273.748L153.091 280.244H152.161ZM163.425 272.918H164.312V278.155C164.312 278.622 164.226 279.019 164.054 279.346C163.883 279.673 163.641 279.921 163.328 280.09C163.016 280.259 162.647 280.344 162.223 280.344C161.822 280.344 161.466 280.271 161.153 280.126C160.841 279.978 160.595 279.768 160.417 279.496C160.238 279.224 160.148 278.901 160.148 278.527H161.021C161.021 278.734 161.072 278.915 161.175 279.07C161.28 279.223 161.423 279.342 161.604 279.428C161.785 279.514 161.992 279.557 162.223 279.557C162.478 279.557 162.695 279.503 162.874 279.396C163.053 279.289 163.189 279.131 163.282 278.924C163.377 278.714 163.425 278.457 163.425 278.155V272.918ZM169.424 277.997V274.749H170.268V280.244H169.424V279.314H169.367C169.238 279.593 169.038 279.83 168.766 280.025C168.494 280.219 168.151 280.315 167.736 280.315C167.392 280.315 167.087 280.24 166.82 280.09C166.553 279.937 166.343 279.708 166.19 279.403C166.038 279.095 165.961 278.708 165.961 278.24V274.749H166.806V278.183C166.806 278.584 166.918 278.903 167.142 279.142C167.368 279.38 167.657 279.5 168.007 279.5C168.217 279.5 168.431 279.446 168.648 279.339C168.867 279.231 169.051 279.067 169.199 278.845C169.349 278.623 169.424 278.341 169.424 277.997ZM172.644 276.938V280.244H171.8V274.749H172.616V275.608H172.687C172.816 275.329 173.012 275.105 173.274 274.935C173.536 274.764 173.875 274.678 174.29 274.678C174.662 274.678 174.987 274.754 175.266 274.907C175.546 275.057 175.763 275.286 175.918 275.593C176.073 275.899 176.15 276.285 176.15 276.752V280.244H175.306V276.81C175.306 276.378 175.194 276.042 174.97 275.801C174.745 275.558 174.438 275.436 174.047 275.436C173.777 275.436 173.536 275.494 173.324 275.611C173.114 275.728 172.949 275.899 172.827 276.123C172.705 276.347 172.644 276.619 172.644 276.938Z" fill="#A6A6A6"/>
</svg>
