<svg width="25" height="25" viewBox="0 0 25 25" fill="none" xmlns="http://www.w3.org/2000/svg">
<path d="M9.93949 24.7074L9.44325 20.7373C9.00506 20.6053 8.53124 20.3977 8.02179 20.1144C7.51233 19.831 7.07898 19.5275 6.72173 19.2037L3.06051 20.7611L0.5 16.3L3.66498 13.9137C3.62451 13.6656 3.59108 13.41 3.56468 13.1469C3.53828 12.8838 3.52508 12.6282 3.52508 12.3801C3.52508 12.1495 3.53828 11.9071 3.56468 11.6529C3.59108 11.3986 3.62451 11.1122 3.66498 10.7937L0.5 8.40737L3.06051 3.9991L6.69534 5.53013C7.10537 5.18873 7.54883 4.88077 8.02573 4.60625C8.50263 4.33172 8.96634 4.11966 9.41686 3.97007L9.93949 0H15.0605L15.5568 3.99645C16.0829 4.18123 16.548 4.39329 16.9518 4.63264C17.3557 4.87195 17.7714 5.17112 18.1991 5.53013L21.9395 3.9991L24.5 8.40737L21.2294 10.8728C21.3051 11.1562 21.3473 11.4162 21.3561 11.6529C21.3649 11.8895 21.3693 12.1232 21.3693 12.3537C21.3693 12.5666 21.3605 12.7914 21.3429 13.0281C21.3253 13.2648 21.2848 13.5512 21.2215 13.8873L24.4393 16.3L21.8788 20.7611L18.1991 19.1773C17.7714 19.5363 17.3412 19.8442 16.9083 20.1011C16.4754 20.3581 16.0249 20.5613 15.5568 20.7109L15.0605 24.7074H9.93949ZM11.1274 23.3348H13.8119L14.3187 19.6181C15.0103 19.4351 15.6329 19.1839 16.1863 18.8645C16.7398 18.5451 17.3033 18.1073 17.877 17.5512L21.3007 19.011L22.6654 16.6775L19.6614 14.4206C19.7758 14.0299 19.8515 13.6705 19.8885 13.3423C19.9254 13.0141 19.9439 12.6845 19.9439 12.3537C19.9439 12.0053 19.9254 11.6757 19.8885 11.3651C19.8515 11.0545 19.7758 10.7127 19.6614 10.3396L22.7182 8.0299L21.3535 5.69643L17.8506 7.16408C17.4353 6.70829 16.8893 6.28111 16.2127 5.88252C15.5361 5.48393 14.8959 5.21953 14.2924 5.08931L13.8726 1.37263H11.1353L10.7077 5.06289C10.0161 5.21072 9.38033 5.44873 8.80048 5.77693C8.22063 6.10513 7.64387 6.55607 7.07017 7.12976L3.64652 5.69643L2.28181 8.0299L5.25936 10.2525C5.14498 10.5605 5.06491 10.8948 5.01915 11.2556C4.9734 11.6163 4.95052 11.9912 4.95052 12.3801C4.95052 12.7285 4.9734 13.0743 5.01915 13.4175C5.06491 13.7606 5.13618 14.095 5.23297 14.4206L2.28181 16.6775L3.64652 19.011L7.04379 17.5697C7.58227 18.1135 8.14145 18.5494 8.72131 18.8776C9.30116 19.2059 9.95448 19.4615 10.6813 19.6445L11.1274 23.3348ZM12.463 15.7853C13.4204 15.7853 14.2316 15.4527 14.8968 14.7875C15.562 14.1223 15.8946 13.311 15.8946 12.3537C15.8946 11.3964 15.562 10.5851 14.8968 9.91991C14.2316 9.25471 13.4204 8.92211 12.463 8.92211C11.5004 8.92211 10.6879 9.25471 10.0253 9.91991C9.36273 10.5851 9.03146 11.3964 9.03146 12.3537C9.03146 13.311 9.36273 14.1223 10.0253 14.7875C10.6879 15.4527 11.5004 15.7853 12.463 15.7853Z" fill="black"/>
</svg>
