<svg width="111" height="44" viewBox="0 0 111 44" fill="none" xmlns="http://www.w3.org/2000/svg">
<path d="M7.08197 0.0884738H2.62675L0.0365094 1.22818V5.75248L2.28139 4.9236V23.9878H7.08197V0.0884738ZM24.803 24.4368C31.0541 24.4368 34.3697 20.2924 34.3697 14.6284V0.0884738H29.5691V14.6284C29.5691 17.7367 28.0149 19.947 24.8721 19.947C21.5911 19.947 20.106 17.8057 20.106 14.6629V0.0884738H15.3055V14.6629C15.3055 20.5341 18.3101 24.4368 24.803 24.4368ZM0.635929 40.9878V32.6153H1.64979V40.0884H5.54169V40.9878H0.635929ZM9.5156 41.1186C8.94871 41.1186 8.45132 40.9837 8.02343 40.7139C7.59826 40.4441 7.26576 40.0666 7.02592 39.5815C6.78881 39.0963 6.67025 38.5295 6.67025 37.8808C6.67025 37.2267 6.78881 36.6557 7.02592 36.1679C7.26576 35.68 7.59826 35.3012 8.02343 35.0314C8.45132 34.7616 8.94871 34.6267 9.5156 34.6267C10.0825 34.6267 10.5785 34.7616 11.0037 35.0314C11.4316 35.3012 11.7641 35.68 12.0012 36.1679C12.241 36.6557 12.3609 37.2267 12.3609 37.8808C12.3609 38.5295 12.241 39.0963 12.0012 39.5815C11.7641 40.0666 11.4316 40.4441 11.0037 40.7139C10.5785 40.9837 10.0825 41.1186 9.5156 41.1186ZM9.5156 40.2519C9.94622 40.2519 10.3005 40.1415 10.5785 39.9208C10.8565 39.7 11.0623 39.4098 11.1958 39.05C11.3294 38.6903 11.3961 38.3005 11.3961 37.8808C11.3961 37.4611 11.3294 37.07 11.1958 36.7075C11.0623 36.345 10.8565 36.052 10.5785 35.8286C10.3005 35.6051 9.94622 35.4933 9.5156 35.4933C9.08498 35.4933 8.73068 35.6051 8.45268 35.8286C8.17469 36.052 7.96892 36.345 7.83537 36.7075C7.70183 37.07 7.63506 37.4611 7.63506 37.8808C7.63506 38.3005 7.70183 38.6903 7.83537 39.05C7.96892 39.4098 8.17469 39.7 8.45268 39.9208C8.73068 40.1415 9.08498 40.2519 9.5156 40.2519ZM14.7824 37.2104V40.9878H13.8176V34.7084H14.7497V35.6896H14.8314C14.9786 35.3707 15.2021 35.1145 15.5019 34.921C15.8017 34.7248 16.1887 34.6267 16.6629 34.6267C17.0881 34.6267 17.4601 34.7139 17.779 34.8883C18.0979 35.06 18.3459 35.3216 18.523 35.6732C18.7002 36.0221 18.7888 36.4636 18.7888 36.9978V40.9878H17.824V37.0632C17.824 36.5699 17.6959 36.1856 17.4397 35.9103C17.1835 35.6323 16.8319 35.4933 16.3849 35.4933C16.077 35.4933 15.8017 35.5601 15.5591 35.6937C15.3193 35.8272 15.1299 36.0221 14.9909 36.2783C14.8519 36.5344 14.7824 36.8451 14.7824 37.2104ZM23.0703 43.4734C22.6042 43.4734 22.2036 43.4134 21.8684 43.2935C21.5332 43.1763 21.2538 43.021 21.0303 42.8275C20.8095 42.6367 20.6338 42.4323 20.5029 42.2142L21.2715 41.6746C21.3587 41.7891 21.4691 41.9199 21.6026 42.0671C21.7362 42.217 21.9188 42.3464 22.1505 42.4554C22.3848 42.5672 22.6915 42.623 23.0703 42.623C23.5772 42.623 23.9956 42.5004 24.3253 42.2551C24.6551 42.0098 24.82 41.6255 24.82 41.1023V39.8268H24.7383C24.6674 39.9412 24.5665 40.083 24.4357 40.2519C24.3076 40.4182 24.1223 40.5667 23.8797 40.6975C23.6399 40.8256 23.3156 40.8897 22.9068 40.8897C22.3998 40.8897 21.9447 40.7698 21.5413 40.5299C21.1407 40.2901 20.8232 39.9412 20.5888 39.4834C20.3571 39.0255 20.2413 38.4695 20.2413 37.8154C20.2413 37.1722 20.3544 36.6121 20.5806 36.1352C20.8068 35.6555 21.1216 35.2848 21.525 35.0232C21.9283 34.7588 22.3944 34.6267 22.9231 34.6267C23.3319 34.6267 23.6563 34.6948 23.8961 34.8311C24.1387 34.9646 24.324 35.1172 24.4521 35.2889C24.5829 35.4579 24.6837 35.5969 24.7546 35.7059H24.8527V34.7084H25.7848V41.1677C25.7848 41.7073 25.6622 42.1461 25.4169 42.4841C25.1743 42.8247 24.8473 43.0741 24.4357 43.2322C24.0269 43.393 23.5718 43.4734 23.0703 43.4734ZM23.0376 40.023C23.4246 40.023 23.7516 39.9344 24.0187 39.7573C24.2858 39.5801 24.4889 39.3253 24.6279 38.9928C24.7669 38.6603 24.8364 38.2624 24.8364 37.799C24.8364 37.3466 24.7682 36.9474 24.632 36.6012C24.4957 36.2551 24.294 35.9839 24.0269 35.7877C23.7598 35.5915 23.43 35.4933 23.0376 35.4933C22.6288 35.4933 22.2881 35.5969 22.0156 35.804C21.7457 36.0112 21.5427 36.2892 21.4064 36.638C21.2729 36.9869 21.2061 37.3739 21.2061 37.799C21.2061 38.2351 21.2742 38.6208 21.4105 38.956C21.5495 39.2885 21.7539 39.5501 22.0237 39.7409C22.2963 39.929 22.6342 40.023 23.0376 40.023ZM31.1323 36.9487V37.8481H27.4694V36.9487H31.1323ZM34.6617 41.135C34.2637 41.135 33.9026 41.06 33.5783 40.9101C33.254 40.7575 32.9964 40.5381 32.8056 40.2519C32.6149 39.963 32.5195 39.6142 32.5195 39.2054C32.5195 38.8456 32.5903 38.554 32.7321 38.3305C32.8738 38.1043 33.0632 37.9271 33.3003 37.799C33.5374 37.671 33.7991 37.5756 34.0852 37.5129C34.3741 37.4475 34.6644 37.3957 34.956 37.3575C35.3376 37.3085 35.6469 37.2717 35.884 37.2471C36.1238 37.2199 36.2983 37.1749 36.4073 37.1122C36.519 37.0496 36.5749 36.9405 36.5749 36.7852V36.7525C36.5749 36.3491 36.4645 36.0357 36.2438 35.8122C36.0257 35.5887 35.6946 35.477 35.2503 35.477C34.7897 35.477 34.4286 35.5778 34.167 35.7795C33.9053 35.9812 33.7214 36.1965 33.6151 36.4254L32.6993 36.0984C32.8629 35.7168 33.0809 35.4197 33.3535 35.2072C33.6287 34.9919 33.9285 34.842 34.2528 34.7575C34.5799 34.6703 34.9015 34.6267 35.2176 34.6267C35.4193 34.6267 35.651 34.6512 35.9126 34.7002C36.177 34.7466 36.4318 34.8433 36.6771 34.9905C36.9251 35.1377 37.1309 35.3598 37.2944 35.6569C37.4579 35.9539 37.5397 36.3518 37.5397 36.8506V40.9878H36.5749V40.1375H36.5258C36.4604 40.2737 36.3514 40.4195 36.1988 40.5749C36.0462 40.7302 35.8431 40.8624 35.5897 40.9714C35.3362 41.0805 35.0269 41.135 34.6617 41.135ZM34.8088 40.2683C35.1904 40.2683 35.512 40.1933 35.7736 40.0434C36.038 39.8935 36.237 39.7 36.3705 39.4629C36.5068 39.2258 36.5749 38.9764 36.5749 38.7148V37.8318C36.534 37.8808 36.4441 37.9258 36.3051 37.9667C36.1688 38.0048 36.0107 38.0389 35.8309 38.0689C35.6537 38.0961 35.4806 38.1206 35.3117 38.1424C35.1454 38.1615 35.0105 38.1779 34.9069 38.1915C34.6562 38.2242 34.4218 38.2774 34.2038 38.3509C33.9885 38.4218 33.814 38.5295 33.6805 38.6739C33.5497 38.8156 33.4843 39.0091 33.4843 39.2544C33.4843 39.5896 33.6083 39.8431 33.8563 40.0148C34.107 40.1838 34.4245 40.2683 34.8088 40.2683ZM41.8355 41.1186C41.2469 41.1186 40.7399 40.9796 40.3148 40.7016C39.8896 40.4236 39.5625 40.0407 39.3336 39.5529C39.1047 39.065 38.9902 38.5077 38.9902 37.8808C38.9902 37.2431 39.1074 36.6803 39.3418 36.1924C39.5789 35.7018 39.9087 35.3189 40.3311 35.0436C40.7563 34.7656 41.2523 34.6267 41.8192 34.6267C42.2607 34.6267 42.6586 34.7084 43.0129 34.8719C43.3672 35.0355 43.6575 35.2644 43.8837 35.5587C44.1099 35.8531 44.2503 36.1965 44.3048 36.589H43.34C43.2664 36.3028 43.1029 36.0493 42.8494 35.8286C42.5987 35.6051 42.2607 35.4933 41.8355 35.4933C41.4594 35.4933 41.1297 35.5915 40.8462 35.7877C40.5655 35.9812 40.3461 36.2551 40.188 36.6094C40.0327 36.961 39.955 37.3739 39.955 37.8481C39.955 38.3332 40.0313 38.7557 40.1839 39.1154C40.3393 39.4752 40.5573 39.7545 40.838 39.9535C41.1215 40.1525 41.454 40.2519 41.8355 40.2519C42.0863 40.2519 42.3139 40.2083 42.5183 40.1211C42.7227 40.0339 42.8957 39.9085 43.0375 39.745C43.1792 39.5815 43.28 39.3852 43.34 39.1563H44.3048C44.2503 39.527 44.1154 39.8608 43.9001 40.1579C43.6875 40.4522 43.4054 40.6866 43.0538 40.8611C42.705 41.0328 42.2989 41.1186 41.8355 41.1186ZM48.43 34.7084V35.526H45.1758V34.7084H48.43ZM46.1242 33.204H47.089V39.189C47.089 39.4616 47.1286 39.666 47.2076 39.8022C47.2894 39.9358 47.3929 40.0257 47.5183 40.0721C47.6464 40.1157 47.7813 40.1375 47.923 40.1375C48.0293 40.1375 48.1165 40.132 48.1847 40.1211C48.2528 40.1075 48.3073 40.0966 48.3482 40.0884L48.5444 40.9551C48.479 40.9796 48.3877 41.0041 48.2705 41.0287C48.1533 41.0559 48.0048 41.0696 47.8249 41.0696C47.5524 41.0696 47.2853 41.011 47.0236 40.8938C46.7647 40.7766 46.5494 40.5981 46.3777 40.3582C46.2087 40.1184 46.1242 39.8159 46.1242 39.4507V33.204ZM49.8651 40.9878V34.7084H50.8299V40.9878H49.8651ZM50.3557 33.6619C50.1676 33.6619 50.0055 33.5978 49.8692 33.4697C49.7357 33.3416 49.6689 33.1876 49.6689 33.0077C49.6689 32.8279 49.7357 32.6739 49.8692 32.5458C50.0055 32.4177 50.1676 32.3536 50.3557 32.3536C50.5438 32.3536 50.7046 32.4177 50.8381 32.5458C50.9744 32.6739 51.0425 32.8279 51.0425 33.0077C51.0425 33.1876 50.9744 33.3416 50.8381 33.4697C50.7046 33.5978 50.5438 33.6619 50.3557 33.6619ZM53.5457 37.2104V40.9878H52.5809V34.7084H53.513V35.6896H53.5948C53.7419 35.3707 53.9654 35.1145 54.2652 34.921C54.565 34.7248 54.952 34.6267 55.4262 34.6267C55.8514 34.6267 56.2234 34.7139 56.5423 34.8883C56.8612 35.06 57.1092 35.3216 57.2863 35.6732C57.4635 36.0221 57.5521 36.4636 57.5521 36.9978V40.9878H56.5873V37.0632C56.5873 36.5699 56.4592 36.1856 56.203 35.9103C55.9468 35.6323 55.5952 35.4933 55.1483 35.4933C54.8403 35.4933 54.565 35.5601 54.3224 35.6937C54.0826 35.8272 53.8932 36.0221 53.7542 36.2783C53.6152 36.5344 53.5457 36.8451 53.5457 37.2104ZM61.8336 43.4734C61.3676 43.4734 60.9669 43.4134 60.6317 43.2935C60.2965 43.1763 60.0171 43.021 59.7936 42.8275C59.5729 42.6367 59.3971 42.4323 59.2663 42.2142L60.0348 41.6746C60.122 41.7891 60.2324 41.9199 60.366 42.0671C60.4995 42.217 60.6821 42.3464 60.9138 42.4554C61.1482 42.5672 61.4548 42.623 61.8336 42.623C62.3405 42.623 62.7589 42.5004 63.0887 42.2551C63.4184 42.0098 63.5833 41.6255 63.5833 41.1023V39.8268H63.5016C63.4307 39.9412 63.3299 40.083 63.1991 40.2519C63.071 40.4182 62.8856 40.5667 62.6431 40.6975C62.4032 40.8256 62.0789 40.8897 61.6701 40.8897C61.1632 40.8897 60.708 40.7698 60.3047 40.5299C59.904 40.2901 59.5865 39.9412 59.3521 39.4834C59.1205 39.0255 59.0046 38.4695 59.0046 37.8154C59.0046 37.1722 59.1177 36.6121 59.3439 36.1352C59.5701 35.6555 59.8849 35.2848 60.2883 35.0232C60.6917 34.7588 61.1577 34.6267 61.6864 34.6267C62.0953 34.6267 62.4196 34.6948 62.6594 34.8311C62.902 34.9646 63.0873 35.1172 63.2154 35.2889C63.3462 35.4579 63.4471 35.5969 63.5179 35.7059H63.616V34.7084H64.5481V41.1677C64.5481 41.7073 64.4255 42.1461 64.1802 42.4841C63.9376 42.8247 63.6106 43.0741 63.1991 43.2322C62.7902 43.393 62.3351 43.4734 61.8336 43.4734ZM61.8009 40.023C62.1879 40.023 62.515 39.9344 62.7821 39.7573C63.0492 39.5801 63.2522 39.3253 63.3912 38.9928C63.5302 38.6603 63.5997 38.2624 63.5997 37.799C63.5997 37.3466 63.5316 36.9474 63.3953 36.6012C63.259 36.2551 63.0573 35.9839 62.7902 35.7877C62.5231 35.5915 62.1934 35.4933 61.8009 35.4933C61.3921 35.4933 61.0514 35.5969 60.7789 35.804C60.5091 36.0112 60.306 36.2892 60.1697 36.638C60.0362 36.9869 59.9694 37.3739 59.9694 37.799C59.9694 38.2351 60.0376 38.6208 60.1738 38.956C60.3128 39.2885 60.5172 39.5501 60.7871 39.7409C61.0596 39.929 61.3975 40.023 61.8009 40.023ZM67.0013 41.0532C66.7996 41.0532 66.6265 40.981 66.4821 40.8365C66.3376 40.6921 66.2654 40.519 66.2654 40.3173C66.2654 40.1157 66.3376 39.9426 66.4821 39.7981C66.6265 39.6537 66.7996 39.5815 67.0013 39.5815C67.2029 39.5815 67.376 39.6537 67.5205 39.7981C67.6649 39.9426 67.7371 40.1157 67.7371 40.3173C67.7371 40.4509 67.7031 40.5735 67.6349 40.6853C67.5695 40.797 67.4809 40.887 67.3692 40.9551C67.2602 41.0205 67.1375 41.0532 67.0013 41.0532ZM67.0013 36.3927C66.7996 36.3927 66.6265 36.3205 66.4821 36.1761C66.3376 36.0316 66.2654 35.8585 66.2654 35.6569C66.2654 35.4552 66.3376 35.2821 66.4821 35.1377C66.6265 34.9932 66.7996 34.921 67.0013 34.921C67.2029 34.921 67.376 34.9932 67.5205 35.1377C67.6649 35.2821 67.7371 35.4552 67.7371 35.6569C67.7371 35.7904 67.7031 35.9131 67.6349 36.0248C67.5695 36.1365 67.4809 36.2265 67.3692 36.2946C67.2602 36.36 67.1375 36.3927 67.0013 36.3927ZM72.347 33.5147V32.6153H78.6263V33.5147H75.9936V40.9878H74.9797V33.5147H72.347ZM79.3921 40.9878V34.7084H80.3242V35.6569H80.3896C80.5041 35.3462 80.7112 35.0941 81.011 34.9006C81.3108 34.7071 81.6487 34.6103 82.0248 34.6103C82.0957 34.6103 82.1843 34.6117 82.2906 34.6144C82.3969 34.6171 82.4773 34.6212 82.5318 34.6267V35.6078C82.4991 35.5996 82.4241 35.5874 82.3069 35.571C82.1925 35.5519 82.0712 35.5424 81.9431 35.5424C81.6378 35.5424 81.3653 35.6064 81.1255 35.7345C80.8883 35.8599 80.7003 36.0343 80.5613 36.2578C80.425 36.4786 80.3569 36.7307 80.3569 37.0141V40.9878H79.3921ZM86.101 41.1186C85.4959 41.1186 84.974 40.9851 84.5352 40.718C84.0991 40.4482 83.7625 40.0721 83.5254 39.5896C83.291 39.1045 83.1739 38.5404 83.1739 37.8972C83.1739 37.254 83.291 36.6871 83.5254 36.1965C83.7625 35.7032 84.0923 35.3189 84.5148 35.0436C84.9399 34.7656 85.436 34.6267 86.0028 34.6267C86.3299 34.6267 86.6529 34.6812 86.9717 34.7902C87.2906 34.8992 87.5809 35.0763 87.8425 35.3216C88.1041 35.5642 88.3126 35.8858 88.468 36.2864C88.6233 36.6871 88.701 37.1804 88.701 37.7663V38.1752H83.8607V37.3412H87.7199C87.7199 36.9869 87.649 36.6707 87.5073 36.3927C87.3683 36.1147 87.1693 35.8953 86.9104 35.7345C86.6542 35.5737 86.3517 35.4933 86.0028 35.4933C85.6186 35.4933 85.2861 35.5887 85.0053 35.7795C84.7273 35.9676 84.5134 36.2128 84.3635 36.5154C84.2136 36.8179 84.1387 37.1422 84.1387 37.4883V38.0443C84.1387 38.5186 84.2204 38.9206 84.3839 39.2503C84.5502 39.5774 84.7805 39.8268 85.0748 39.9985C85.3692 40.1674 85.7112 40.2519 86.101 40.2519C86.3544 40.2519 86.5834 40.2165 86.7878 40.1456C86.9949 40.0721 87.1734 39.963 87.3233 39.8186C87.4732 39.6714 87.589 39.4888 87.6708 39.2708L88.6029 39.5324C88.5048 39.8486 88.3399 40.1266 88.1082 40.3664C87.8766 40.6035 87.5904 40.7888 87.2497 40.9224C86.909 41.0532 86.5261 41.1186 86.101 41.1186ZM94.6004 36.1147L93.7337 36.36C93.6792 36.2156 93.5988 36.0752 93.4925 35.9389C93.389 35.7999 93.2473 35.6855 93.0674 35.5955C92.8875 35.5056 92.6572 35.4606 92.3765 35.4606C91.9922 35.4606 91.672 35.5492 91.4158 35.7264C91.1623 35.9008 91.0356 36.1229 91.0356 36.3927C91.0356 36.6326 91.1228 36.822 91.2972 36.961C91.4716 37.1 91.7442 37.2158 92.1148 37.3085L93.0469 37.5374C93.6084 37.6737 94.0267 37.8822 94.302 38.1629C94.5773 38.4409 94.7149 38.7993 94.7149 39.2381C94.7149 39.5978 94.6113 39.9194 94.4042 40.2029C94.1998 40.4863 93.9136 40.7098 93.5457 40.8733C93.1778 41.0369 92.7499 41.1186 92.262 41.1186C91.6215 41.1186 91.0914 40.9796 90.6717 40.7016C90.252 40.4236 89.9863 40.0175 89.8745 39.4834L90.7903 39.2544C90.8775 39.5924 91.0424 39.8458 91.285 40.0148C91.5302 40.1838 91.8505 40.2683 92.2457 40.2683C92.6954 40.2683 93.0524 40.1729 93.3168 39.9821C93.5838 39.7886 93.7174 39.5569 93.7174 39.2871C93.7174 39.0691 93.6411 38.8865 93.4885 38.7393C93.3358 38.5894 93.1014 38.4777 92.7853 38.4041L91.7387 38.1588C91.1637 38.0225 90.7412 37.8113 90.4714 37.5251C90.2043 37.2362 90.0708 36.8751 90.0708 36.4418C90.0708 36.0875 90.1703 35.7741 90.3692 35.5015C90.5709 35.229 90.8448 35.015 91.1909 34.8597C91.5398 34.7043 91.935 34.6267 92.3765 34.6267C92.9979 34.6267 93.4857 34.7629 93.84 35.0355C94.1971 35.308 94.4505 35.6678 94.6004 36.1147ZM96.1511 40.9878V34.7084H97.1159V40.9878H96.1511ZM96.6417 33.6619C96.4536 33.6619 96.2914 33.5978 96.1552 33.4697C96.0216 33.3416 95.9549 33.1876 95.9549 33.0077C95.9549 32.8279 96.0216 32.6739 96.1552 32.5458C96.2914 32.4177 96.4536 32.3536 96.6417 32.3536C96.8297 32.3536 96.9905 32.4177 97.1241 32.5458C97.2603 32.6739 97.3285 32.8279 97.3285 33.0077C97.3285 33.1876 97.2603 33.3416 97.1241 33.4697C96.9905 33.5978 96.8297 33.6619 96.6417 33.6619ZM98.9977 40.9878V32.6153H99.9625V35.7059H100.044C100.115 35.5969 100.213 35.4579 100.339 35.2889C100.467 35.1172 100.649 34.9646 100.886 34.8311C101.126 34.6948 101.451 34.6267 101.859 34.6267C102.388 34.6267 102.854 34.7588 103.258 35.0232C103.661 35.2876 103.976 35.6623 104.202 36.1474C104.428 36.6326 104.541 37.2049 104.541 37.8645C104.541 38.5295 104.428 39.1059 104.202 39.5937C103.976 40.0789 103.662 40.455 103.262 40.7221C102.861 40.9864 102.399 41.1186 101.876 41.1186C101.472 41.1186 101.149 41.0518 100.907 40.9183C100.664 40.782 100.478 40.628 100.347 40.4563C100.216 40.2819 100.115 40.1375 100.044 40.023H99.9298V40.9878H98.9977ZM99.9461 37.8481C99.9461 38.3223 100.016 38.7407 100.155 39.1032C100.294 39.4629 100.497 39.745 100.764 39.9494C101.031 40.1511 101.358 40.2519 101.745 40.2519C102.148 40.2519 102.485 40.1456 102.755 39.9331C103.027 39.7177 103.232 39.4288 103.368 39.0664C103.507 38.7012 103.576 38.2951 103.576 37.8481C103.576 37.4066 103.508 37.0087 103.372 36.6544C103.238 36.2973 103.035 36.0153 102.763 35.8081C102.493 35.5983 102.154 35.4933 101.745 35.4933C101.352 35.4933 101.023 35.5928 100.756 35.7918C100.488 35.988 100.287 36.2633 100.151 36.6176C100.014 36.9692 99.9461 37.3793 99.9461 37.8481ZM107.849 41.135C107.451 41.135 107.09 41.06 106.765 40.9101C106.441 40.7575 106.184 40.5381 105.993 40.2519C105.802 39.963 105.707 39.6142 105.707 39.2054C105.707 38.8456 105.777 38.554 105.919 38.3305C106.061 38.1043 106.25 37.9271 106.487 37.799C106.725 37.671 106.986 37.5756 107.272 37.5129C107.561 37.4475 107.851 37.3957 108.143 37.3575C108.525 37.3085 108.834 37.2717 109.071 37.2471C109.311 37.2199 109.485 37.1749 109.594 37.1122C109.706 37.0496 109.762 36.9405 109.762 36.7852V36.7525C109.762 36.3491 109.652 36.0357 109.431 35.8122C109.213 35.5887 108.882 35.477 108.437 35.477C107.977 35.477 107.616 35.5778 107.354 35.7795C107.092 35.9812 106.908 36.1965 106.802 36.4254L105.886 36.0984C106.05 35.7168 106.268 35.4197 106.541 35.2072C106.816 34.9919 107.116 34.842 107.44 34.7575C107.767 34.6703 108.089 34.6267 108.405 34.6267C108.606 34.6267 108.838 34.6512 109.1 34.7002C109.364 34.7466 109.619 34.8433 109.864 34.9905C110.112 35.1377 110.318 35.3598 110.482 35.6569C110.645 35.9539 110.727 36.3518 110.727 36.8506V40.9878H109.762V40.1375H109.713C109.648 40.2737 109.539 40.4195 109.386 40.5749C109.233 40.7302 109.03 40.8624 108.777 40.9714C108.523 41.0805 108.214 41.135 107.849 41.135ZM107.996 40.2683C108.377 40.2683 108.699 40.1933 108.961 40.0434C109.225 39.8935 109.424 39.7 109.558 39.4629C109.694 39.2258 109.762 38.9764 109.762 38.7148V37.8318C109.721 37.8808 109.631 37.9258 109.492 37.9667C109.356 38.0048 109.198 38.0389 109.018 38.0689C108.841 38.0961 108.668 38.1206 108.499 38.1424C108.333 38.1615 108.198 38.1779 108.094 38.1915C107.843 38.2242 107.609 38.2774 107.391 38.3509C107.176 38.4218 107.001 38.5295 106.868 38.6739C106.737 38.8156 106.671 39.0091 106.671 39.2544C106.671 39.5896 106.795 39.8431 107.043 40.0148C107.294 40.1838 107.612 40.2683 107.996 40.2683Z" fill="black"/>
</svg>
