<svg width="96" height="17" viewBox="0 0 96 17" fill="none" xmlns="http://www.w3.org/2000/svg">
<path fill-rule="evenodd" clip-rule="evenodd" d="M16 8.37939C16 12.7977 12.4183 16.3794 8 16.3794C3.58172 16.3794 0 12.7977 0 8.37939C0 3.96112 3.58172 0.379395 8 0.379395C12.4183 0.379395 16 3.96112 16 8.37939ZM96 8.37939C96 12.7977 92.4183 16.3794 88 16.3794C83.5817 16.3794 80 12.7977 80 8.37939C80 3.96112 83.5817 0.379395 88 0.379395C92.4183 0.379395 96 3.96112 96 8.37939ZM32 0.379395C27.5817 0.379395 24 3.96112 24 8.37939C24 12.7977 27.5817 16.3794 32 16.3794H64C68.4183 16.3794 72 12.7977 72 8.37939C72 3.96112 68.4183 0.379395 64 0.379395H32Z" fill="black"/>
</svg>
