<svg width="259" height="96" viewBox="0 0 259 96" fill="none" xmlns="http://www.w3.org/2000/svg">
<path d="M0.580401 7.23416V6.33477H6.85978V7.23416H4.22702V14.7073H3.21316V7.23416H0.580401ZM9.91794 14.8381C9.35105 14.8381 8.85366 14.7032 8.42577 14.4334C8.00061 14.1636 7.6681 13.7861 7.42827 13.301C7.19115 12.8158 7.0726 12.2489 7.0726 11.6003C7.0726 10.9462 7.19115 10.3752 7.42827 9.88736C7.6681 9.39951 8.00061 9.02068 8.42577 8.75086C8.85366 8.48104 9.35105 8.34613 9.91794 8.34613C10.4848 8.34613 10.9809 8.48104 11.406 8.75086C11.8339 9.02068 12.1664 9.39951 12.4035 9.88736C12.6434 10.3752 12.7633 10.9462 12.7633 11.6003C12.7633 12.2489 12.6434 12.8158 12.4035 13.301C12.1664 13.7861 11.8339 14.1636 11.406 14.4334C10.9809 14.7032 10.4848 14.8381 9.91794 14.8381ZM9.91794 13.9714C10.3486 13.9714 10.7029 13.861 10.9809 13.6403C11.2589 13.4195 11.4646 13.1293 11.5982 12.7695C11.7317 12.4097 11.7985 12.02 11.7985 11.6003C11.7985 11.1806 11.7317 10.7895 11.5982 10.427C11.4646 10.0645 11.2589 9.77153 10.9809 9.54805C10.7029 9.32456 10.3486 9.21282 9.91794 9.21282C9.48733 9.21282 9.13302 9.32456 8.85503 9.54805C8.57703 9.77153 8.37126 10.0645 8.23772 10.427C8.10417 10.7895 8.0374 11.1806 8.0374 11.6003C8.0374 12.02 8.10417 12.4097 8.23772 12.7695C8.37126 13.1293 8.57703 13.4195 8.85503 13.6403C9.13302 13.861 9.48733 13.9714 9.91794 13.9714ZM16.591 14.8381C16.0678 14.8381 15.6058 14.7059 15.2052 14.4415C14.8045 14.1745 14.4911 13.7983 14.2649 13.3132C14.0387 12.8254 13.9256 12.2489 13.9256 11.5839C13.9256 10.9244 14.0387 10.352 14.2649 9.86692C14.4911 9.38179 14.8059 9.00705 15.2093 8.74268C15.6126 8.47832 16.0787 8.34613 16.6074 8.34613C17.0162 8.34613 17.3392 8.41427 17.5763 8.55054C17.8161 8.68409 17.9987 8.83671 18.1241 9.00841C18.2522 9.17739 18.3517 9.31638 18.4225 9.4254H18.5043V6.33477H19.4691V14.7073H18.537V13.7425H18.4225C18.3517 13.8569 18.2508 14.0014 18.12 14.1758C17.9892 14.3475 17.8025 14.5015 17.5599 14.6378C17.3174 14.7713 16.9944 14.8381 16.591 14.8381ZM16.7219 13.9714C17.1089 13.9714 17.4359 13.8706 17.703 13.6689C17.9701 13.4645 18.1732 13.1824 18.3121 12.8226C18.4511 12.4602 18.5206 12.0418 18.5206 11.5676C18.5206 11.0988 18.4525 10.6886 18.3162 10.3371C18.18 9.98275 17.9783 9.70748 17.7112 9.51125C17.4441 9.3123 17.1143 9.21282 16.7219 9.21282C16.313 9.21282 15.9724 9.31775 15.6998 9.5276C15.43 9.73474 15.227 10.0168 15.0907 10.3738C14.9571 10.7282 14.8904 11.1261 14.8904 11.5676C14.8904 12.0146 14.9585 12.4206 15.0948 12.7859C15.2338 13.1483 15.4382 13.4372 15.708 13.6525C15.9805 13.8651 16.3185 13.9714 16.7219 13.9714ZM23.2018 14.8544C22.8039 14.8544 22.4428 14.7795 22.1184 14.6296C21.7941 14.477 21.5366 14.2576 21.3458 13.9714C21.155 13.6825 21.0596 13.3337 21.0596 12.9248C21.0596 12.5651 21.1305 12.2735 21.2722 12.05C21.4139 11.8238 21.6033 11.6466 21.8404 11.5185C22.0776 11.3904 22.3392 11.295 22.6254 11.2324C22.9143 11.1669 23.2045 11.1152 23.4961 11.077C23.8777 11.028 24.187 10.9912 24.4241 10.9666C24.664 10.9394 24.8384 10.8944 24.9474 10.8317C25.0592 10.769 25.115 10.66 25.115 10.5047V10.472C25.115 10.0686 25.0047 9.75518 24.7839 9.53169C24.5659 9.30821 24.2347 9.19647 23.7905 9.19647C23.3299 9.19647 22.9688 9.29731 22.7071 9.49899C22.4455 9.70067 22.2615 9.91598 22.1552 10.1449L21.2395 9.81786C21.403 9.4363 21.621 9.13923 21.8936 8.92665C22.1689 8.71134 22.4687 8.56144 22.793 8.47695C23.12 8.38974 23.4416 8.34613 23.7578 8.34613C23.9595 8.34613 24.1911 8.37066 24.4528 8.41972C24.7171 8.46605 24.972 8.5628 25.2172 8.70998C25.4653 8.85715 25.671 9.07927 25.8346 9.37634C25.9981 9.67342 26.0798 10.0713 26.0798 10.5701V14.7073H25.115V13.8569H25.066C25.0006 13.9932 24.8916 14.139 24.7389 14.2944C24.5863 14.4497 24.3833 14.5819 24.1298 14.6909C23.8763 14.7999 23.567 14.8544 23.2018 14.8544ZM23.349 13.9878C23.7305 13.9878 24.0521 13.9128 24.3138 13.7629C24.5781 13.613 24.7771 13.4195 24.9106 13.1824C25.0469 12.9453 25.115 12.6959 25.115 12.4343V11.5512C25.0742 11.6003 24.9842 11.6453 24.8452 11.6861C24.709 11.7243 24.5509 11.7584 24.371 11.7883C24.1938 11.8156 24.0208 11.8401 23.8518 11.8619C23.6856 11.881 23.5506 11.8974 23.4471 11.911C23.1963 11.9437 22.962 11.9968 22.7439 12.0704C22.5286 12.1413 22.3542 12.2489 22.2206 12.3934C22.0898 12.5351 22.0244 12.7286 22.0244 12.9739C22.0244 13.3091 22.1484 13.5626 22.3964 13.7343C22.6472 13.9033 22.9647 13.9878 23.349 13.9878ZM28.2212 17.062C28.0577 17.062 27.9119 17.0484 27.7838 17.0212C27.6557 16.9966 27.5671 16.9721 27.5181 16.9476L27.7634 16.0972C27.9978 16.1572 28.2049 16.179 28.3848 16.1627C28.5646 16.1463 28.7241 16.0659 28.8631 15.9215C29.0048 15.7797 29.1343 15.5494 29.2515 15.2306L29.4313 14.74L27.1093 8.4279H28.1558L29.8892 13.4318H29.9546L31.688 8.4279H32.7345L30.0691 15.623C29.9492 15.9473 29.8006 16.2158 29.6235 16.4284C29.4463 16.6437 29.2406 16.8031 29.0062 16.9067C28.7745 17.0103 28.5129 17.062 28.2212 17.062Z" fill="black"/>
<path d="M18.3884 53.9058C18.8138 52.5691 20.7054 52.5691 21.1308 53.9058L23.8713 62.5159C24.0614 63.113 24.616 63.5184 25.2426 63.5184L34.173 63.5184C35.5598 63.5184 36.1442 65.2871 35.0303 66.1133L27.7547 71.5094C27.2607 71.8758 27.0541 72.5156 27.2407 73.1017L30.0076 81.7948C30.4313 83.1259 28.901 84.2192 27.7791 83.3871L20.6169 78.075C20.1077 77.6974 19.4115 77.6974 18.9024 78.075L11.7401 83.3871C10.6182 84.2192 9.08795 83.1259 9.5116 81.7948L12.2785 73.1017C12.4651 72.5156 12.2585 71.8758 11.7645 71.5094L4.48893 66.1133C3.37504 65.2871 3.95936 63.5184 5.34618 63.5184L14.2766 63.5184C14.9033 63.5184 15.4578 63.113 15.6479 62.5159L18.3884 53.9058Z" fill="#CCE0FF"/>
<path d="M18.3884 53.9058C18.8138 52.5691 20.7054 52.5691 21.1308 53.9058L23.8713 62.5159C24.0614 63.113 24.616 63.5184 25.2426 63.5184L34.173 63.5184C35.5598 63.5184 36.1442 65.2871 35.0303 66.1133L27.7547 71.5094C27.2607 71.8758 27.0541 72.5156 27.2407 73.1017L30.0076 81.7948C30.4313 83.1259 28.901 84.2192 27.7791 83.3871L20.6169 78.075C20.1077 77.6974 19.4115 77.6974 18.9024 78.075L11.7401 83.3871C10.6182 84.2192 9.08795 83.1259 9.5116 81.7948L12.2785 73.1017C12.4651 72.5156 12.2585 71.8758 11.7645 71.5094L4.48893 66.1133C3.37504 65.2871 3.95936 63.5184 5.34618 63.5184L14.2766 63.5184C14.9033 63.5184 15.4578 63.113 15.6479 62.5159L18.3884 53.9058Z" fill="url(#paint0_linear_920_35520)"/>
<path d="M58.4667 49.3446H54.0115L51.4213 50.4843V55.0086L53.6662 54.1797V73.2439H58.4667V49.3446ZM61.7733 71.5171C62.7749 72.415 64.8126 73.6929 68.0935 73.6929C74.1374 73.6929 76.4169 69.9284 76.4169 64.9551V56.7354C76.4169 52.0039 73.9302 48.8956 68.6461 48.8956C63.5692 48.8956 60.979 52.3493 60.979 56.7354V57.7715C60.979 62.8829 63.2584 65.5422 67.8863 65.5422C69.7513 65.5422 71.1673 64.7479 71.6163 64.1262V65.0933C71.6853 67.3727 70.8219 69.1686 67.9899 69.1686C66.1595 69.1686 65.0889 68.3742 64.3981 67.8562L61.7733 71.5171ZM68.6807 61.087C66.6085 61.087 65.7105 59.7401 65.7105 57.7715V56.7354C65.7105 54.8359 66.5739 53.3854 68.6461 53.3854C70.7529 53.3854 71.6508 54.8014 71.6508 56.7354V57.8751C71.6163 59.7056 70.7529 61.087 68.6807 61.087ZM85.2124 49.3446H80.7571L78.1669 50.4843V55.0086L80.4118 54.1797V73.2439H85.2124V49.3446ZM54.8497 81.4789L52.1515 91.503H51.2685L53.9666 81.4789H54.8497ZM62.0116 90.3584C61.4719 90.3584 60.9909 90.2657 60.5684 90.0804C60.1487 89.895 59.8149 89.6375 59.5668 89.3077C59.3216 88.9752 59.188 88.5896 59.1662 88.1508H60.1964C60.2182 88.4206 60.3109 88.6536 60.4744 88.8498C60.6379 89.0433 60.8519 89.1932 61.1162 89.2995C61.3806 89.4058 61.6736 89.459 61.9952 89.459C62.355 89.459 62.6738 89.3963 62.9518 89.2709C63.2298 89.1456 63.4479 88.9711 63.6059 88.7476C63.764 88.5242 63.843 88.2652 63.843 87.9709C63.843 87.6629 63.7667 87.3917 63.6141 87.1574C63.4615 86.9202 63.238 86.7349 62.9436 86.6014C62.6493 86.4678 62.2895 86.401 61.8644 86.401H61.1939V85.5017H61.8644C62.1969 85.5017 62.4885 85.4417 62.7392 85.3218C62.9927 85.2019 63.1903 85.0329 63.332 84.8148C63.4765 84.5968 63.5487 84.3406 63.5487 84.0463C63.5487 83.7628 63.486 83.5162 63.3606 83.3063C63.2353 83.0965 63.0581 82.9329 62.8292 82.8158C62.603 82.6986 62.3359 82.64 62.0279 82.64C61.739 82.64 61.4665 82.6931 61.2103 82.7994C60.9568 82.903 60.7497 83.0542 60.5889 83.2532C60.4281 83.4494 60.3409 83.6865 60.3272 83.9645H59.3461C59.3624 83.5257 59.4946 83.1414 59.7426 82.8117C59.9906 82.4792 60.315 82.2202 60.7156 82.0349C61.119 81.8496 61.5619 81.7569 62.0443 81.7569C62.5621 81.7569 63.0063 81.8619 63.377 82.0717C63.7476 82.2788 64.0325 82.5527 64.2314 82.8934C64.4304 83.2341 64.5298 83.602 64.5298 83.9972C64.5298 84.4687 64.4058 84.8707 64.1578 85.2032C63.9125 85.5357 63.5787 85.766 63.1562 85.8941V85.9595C63.685 86.0467 64.0979 86.2716 64.3949 86.6341C64.692 86.9938 64.8405 87.4394 64.8405 87.9709C64.8405 88.426 64.7165 88.8349 64.4685 89.1973C64.2232 89.5571 63.888 89.8405 63.4628 90.0477C63.0377 90.2548 62.5539 90.3584 62.0116 90.3584ZM69.2273 90.3584C68.6114 90.3584 68.0868 90.1908 67.6534 89.8555C67.2201 89.5176 66.8889 89.0284 66.66 88.3879C66.4311 87.7447 66.3166 86.9679 66.3166 86.0576C66.3166 85.1528 66.4311 84.3801 66.66 83.7397C66.8917 83.0965 67.2242 82.6059 67.6575 82.2679C68.0936 81.9273 68.6169 81.7569 69.2273 81.7569C69.8378 81.7569 70.3598 81.9273 70.7931 82.2679C71.2292 82.6059 71.5617 83.0965 71.7906 83.7397C72.0223 84.3801 72.1381 85.1528 72.1381 86.0576C72.1381 86.9679 72.0236 87.7447 71.7947 88.3879C71.5658 89.0284 71.2346 89.5176 70.8013 89.8555C70.3679 90.1908 69.8433 90.3584 69.2273 90.3584ZM69.2273 89.459C69.8378 89.459 70.3121 89.1646 70.65 88.5759C70.988 87.9872 71.157 87.1478 71.157 86.0576C71.157 85.3327 71.0793 84.7154 70.9239 84.2057C70.7713 83.6961 70.5505 83.3077 70.2616 83.0406C69.9755 82.7735 69.6307 82.64 69.2273 82.64C68.6223 82.64 68.1494 82.9384 67.8088 83.5353C67.4681 84.1294 67.2977 84.9702 67.2977 86.0576C67.2977 86.7826 67.3741 87.3986 67.5267 87.9055C67.6793 88.4124 67.8987 88.7981 68.1849 89.0624C68.4738 89.3268 68.8213 89.459 69.2273 89.459ZM76.4064 90.3584C75.7904 90.3584 75.2658 90.1908 74.8324 89.8555C74.3991 89.5176 74.0679 89.0284 73.839 88.3879C73.6101 87.7447 73.4956 86.9679 73.4956 86.0576C73.4956 85.1528 73.6101 84.3801 73.839 83.7397C74.0707 83.0965 74.4032 82.6059 74.8365 82.2679C75.2726 81.9273 75.7959 81.7569 76.4064 81.7569C77.0169 81.7569 77.5388 81.9273 77.9721 82.2679C78.4082 82.6059 78.7407 83.0965 78.9696 83.7397C79.2013 84.3801 79.3171 85.1528 79.3171 86.0576C79.3171 86.9679 79.2026 87.7447 78.9737 88.3879C78.7448 89.0284 78.4136 89.5176 77.9803 89.8555C77.5469 90.1908 77.0223 90.3584 76.4064 90.3584ZM76.4064 89.459C77.0169 89.459 77.4911 89.1646 77.829 88.5759C78.167 87.9872 78.336 87.1478 78.336 86.0576C78.336 85.3327 78.2583 84.7154 78.1029 84.2057C77.9503 83.6961 77.7295 83.3077 77.4407 83.0406C77.1545 82.7735 76.8097 82.64 76.4064 82.64C75.8013 82.64 75.3284 82.9384 74.9878 83.5353C74.6471 84.1294 74.4768 84.9702 74.4768 86.0576C74.4768 86.7826 74.5531 87.3986 74.7057 87.9055C74.8583 88.4124 75.0777 88.7981 75.3639 89.0624C75.6528 89.3268 76.0003 89.459 76.4064 89.459ZM88.5404 85.3708L87.6737 85.6161C87.6192 85.4717 87.5388 85.3313 87.4325 85.195C87.329 85.056 87.1872 84.9416 87.0074 84.8516C86.8275 84.7617 86.5972 84.7167 86.3165 84.7167C85.9322 84.7167 85.612 84.8053 85.3558 84.9825C85.1023 85.1569 84.9756 85.379 84.9756 85.6488C84.9756 85.8887 85.0628 86.0781 85.2372 86.2171C85.4116 86.3561 85.6842 86.4719 86.0548 86.5646L86.9869 86.7935C87.5484 86.9298 87.9667 87.1383 88.242 87.419C88.5173 87.697 88.6549 88.0554 88.6549 88.4942C88.6549 88.8539 88.5513 89.1755 88.3442 89.459C88.1398 89.7424 87.8536 89.9659 87.4857 90.1294C87.1177 90.293 86.6899 90.3747 86.202 90.3747C85.5615 90.3747 85.0314 90.2357 84.6117 89.9577C84.192 89.6797 83.9263 89.2736 83.8145 88.7395L84.7303 88.5105C84.8175 88.8485 84.9824 89.1019 85.2249 89.2709C85.4702 89.4399 85.7905 89.5244 86.1857 89.5244C86.6353 89.5244 86.9924 89.429 87.2567 89.2382C87.5238 89.0447 87.6574 88.813 87.6574 88.5432C87.6574 88.3252 87.5811 88.1426 87.4284 87.9954C87.2758 87.8455 87.0414 87.7338 86.7253 87.6602L85.6787 87.4149C85.1037 87.2786 84.6812 87.0674 84.4114 86.7812C84.1443 86.4923 84.0108 86.1312 84.0108 85.6979C84.0108 85.3436 84.1102 85.0302 84.3092 84.7576C84.5109 84.4851 84.7848 84.2711 85.1309 84.1158C85.4798 83.9604 85.875 83.8828 86.3165 83.8828C86.9379 83.8828 87.4257 84.019 87.78 84.2916C88.1371 84.5641 88.3905 84.9239 88.5404 85.3708ZM92.822 83.9645V84.7821H89.5678V83.9645H92.822ZM90.5162 82.4601H91.481V88.4451C91.481 88.7177 91.5206 88.9221 91.5996 89.0583C91.6814 89.1919 91.7849 89.2818 91.9103 89.3282C92.0384 89.3718 92.1733 89.3936 92.315 89.3936C92.4213 89.3936 92.5085 89.3881 92.5767 89.3772C92.6448 89.3636 92.6993 89.3527 92.7402 89.3445L92.9364 90.2112C92.871 90.2357 92.7797 90.2602 92.6625 90.2848C92.5453 90.312 92.3968 90.3257 92.2169 90.3257C91.9444 90.3257 91.6773 90.2671 91.4156 90.1499C91.1567 90.0327 90.9414 89.8542 90.7697 89.6143C90.6007 89.3745 90.5162 89.072 90.5162 88.7068V82.4601ZM96.105 90.3911C95.7071 90.3911 95.3459 90.3161 95.0216 90.1662C94.6973 90.0136 94.4397 89.7942 94.2489 89.508C94.0582 89.2191 93.9628 88.8703 93.9628 88.4615C93.9628 88.1017 94.0336 87.8101 94.1754 87.5866C94.3171 87.3604 94.5065 87.1832 94.7436 87.0551C94.9807 86.9271 95.2424 86.8317 95.5285 86.769C95.8174 86.7036 96.1077 86.6518 96.3993 86.6136C96.7809 86.5646 97.0902 86.5278 97.3273 86.5033C97.5672 86.476 97.7416 86.431 97.8506 86.3683C97.9623 86.3057 98.0182 86.1966 98.0182 86.0413V86.0086C98.0182 85.6052 97.9078 85.2918 97.6871 85.0683C97.469 84.8448 97.1379 84.7331 96.6937 84.7331C96.2331 84.7331 95.8719 84.8339 95.6103 85.0356C95.3487 85.2373 95.1647 85.4526 95.0584 85.6815L94.1427 85.3545C94.3062 84.9729 94.5242 84.6759 94.7968 84.4633C95.072 84.248 95.3718 84.0981 95.6962 84.0136C96.0232 83.9264 96.3448 83.8828 96.661 83.8828C96.8626 83.8828 97.0943 83.9073 97.3559 83.9563C97.6203 84.0027 97.8751 84.0994 98.1204 84.2466C98.3684 84.3938 98.5742 84.6159 98.7377 84.913C98.9013 85.21 98.983 85.6079 98.983 86.1067V90.2439H98.0182V89.3936H97.9692C97.9037 89.5298 97.7947 89.6756 97.6421 89.831C97.4895 89.9863 97.2864 90.1185 97.033 90.2275C96.7795 90.3366 96.4702 90.3911 96.105 90.3911ZM96.2521 89.5244C96.6337 89.5244 96.9553 89.4494 97.2169 89.2995C97.4813 89.1496 97.6803 88.9561 97.8138 88.719C97.9501 88.4819 98.0182 88.2325 98.0182 87.9709V87.0879C97.9773 87.1369 97.8874 87.1819 97.7484 87.2228C97.6121 87.2609 97.454 87.295 97.2742 87.325C97.097 87.3522 96.924 87.3767 96.755 87.3986C96.5887 87.4176 96.4538 87.434 96.3503 87.4476C96.0995 87.4803 95.8651 87.5335 95.6471 87.607C95.4318 87.6779 95.2574 87.7856 95.1238 87.93C94.993 88.0717 94.9276 88.2652 94.9276 88.5105C94.9276 88.8458 95.0516 89.0992 95.2996 89.2709C95.5503 89.4399 95.8679 89.5244 96.2521 89.5244ZM100.728 90.2439V83.9645H101.66V84.913H101.725C101.84 84.6023 102.047 84.3502 102.347 84.1567C102.647 83.9632 102.985 83.8664 103.361 83.8664C103.431 83.8664 103.52 83.8678 103.626 83.8705C103.733 83.8732 103.813 83.8773 103.868 83.8828V84.8639C103.835 84.8557 103.76 84.8435 103.643 84.8271C103.528 84.808 103.407 84.7985 103.279 84.7985C102.974 84.7985 102.701 84.8625 102.461 84.9906C102.224 85.116 102.036 85.2904 101.897 85.5139C101.761 85.7347 101.693 85.9868 101.693 86.2702V90.2439H100.728ZM109.443 85.3708L108.576 85.6161C108.522 85.4717 108.441 85.3313 108.335 85.195C108.232 85.056 108.09 84.9416 107.91 84.8516C107.73 84.7617 107.5 84.7167 107.219 84.7167C106.835 84.7167 106.515 84.8053 106.258 84.9825C106.005 85.1569 105.878 85.379 105.878 85.6488C105.878 85.8887 105.965 86.0781 106.14 86.2171C106.314 86.3561 106.587 86.4719 106.957 86.5646L107.889 86.7935C108.451 86.9298 108.869 87.1383 109.145 87.419C109.42 87.697 109.557 88.0554 109.557 88.4942C109.557 88.8539 109.454 89.1755 109.247 89.459C109.042 89.7424 108.756 89.9659 108.388 90.1294C108.02 90.293 107.592 90.3747 107.105 90.3747C106.464 90.3747 105.934 90.2357 105.514 89.9577C105.095 89.6797 104.829 89.2736 104.717 88.7395L105.633 88.5105C105.72 88.8485 105.885 89.1019 106.128 89.2709C106.373 89.4399 106.693 89.5244 107.088 89.5244C107.538 89.5244 107.895 89.429 108.159 89.2382C108.426 89.0447 108.56 88.813 108.56 88.5432C108.56 88.3252 108.484 88.1426 108.331 87.9954C108.178 87.8455 107.944 87.7338 107.628 87.6602L106.581 87.4149C106.006 87.2786 105.584 87.0674 105.314 86.7812C105.047 86.4923 104.913 86.1312 104.913 85.6979C104.913 85.3436 105.013 85.0302 105.212 84.7576C105.413 84.4851 105.687 84.2711 106.033 84.1158C106.382 83.9604 106.778 83.8828 107.219 83.8828C107.84 83.8828 108.328 84.019 108.683 84.2916C109.04 84.5641 109.293 84.9239 109.443 85.3708Z" fill="black"/>
<line x1="129.896" y1="0.987793" x2="129.176" y2="95.2439" stroke="#D9D9D9" stroke-width="0.719512"/>
<path d="M141.605 7.23416V6.33477H147.884V7.23416H145.251V14.7073H144.238V7.23416H141.605ZM150.267 10.9298V14.7073H149.302V6.33477H150.267V9.40905H150.349C150.496 9.08472 150.716 8.82717 151.011 8.63639C151.308 8.44289 151.703 8.34613 152.196 8.34613C152.624 8.34613 152.999 8.43198 153.321 8.60369C153.642 8.77266 153.892 9.03294 154.069 9.38452C154.249 9.73337 154.339 10.1776 154.339 10.7173V14.7073H153.374V10.7827C153.374 10.2839 153.244 9.89826 152.985 9.62572C152.729 9.35045 152.374 9.21282 151.918 9.21282C151.602 9.21282 151.319 9.27959 151.068 9.41314C150.82 9.54668 150.624 9.74155 150.479 9.99774C150.338 10.2539 150.267 10.5646 150.267 10.9298ZM156.088 14.7073V8.4279H157.052V14.7073H156.088ZM156.578 7.38133C156.39 7.38133 156.228 7.31729 156.092 7.18919C155.958 7.0611 155.891 6.90711 155.891 6.72723C155.891 6.54735 155.958 6.39337 156.092 6.26527C156.228 6.13718 156.39 6.07313 156.578 6.07313C156.766 6.07313 156.927 6.13718 157.06 6.26527C157.197 6.39337 157.265 6.54735 157.265 6.72723C157.265 6.90711 157.197 7.0611 157.06 7.18919C156.927 7.31729 156.766 7.38133 156.578 7.38133ZM163.251 9.83422L162.385 10.0795C162.33 9.93506 162.25 9.7947 162.143 9.65843C162.04 9.51943 161.898 9.40496 161.718 9.31502C161.538 9.22508 161.308 9.18011 161.027 9.18011C160.643 9.18011 160.323 9.26869 160.067 9.44584C159.813 9.62027 159.686 9.84239 159.686 10.1122C159.686 10.352 159.774 10.5415 159.948 10.6805C160.122 10.8195 160.395 10.9353 160.766 11.028L161.698 11.2569C162.259 11.3932 162.677 11.6017 162.953 11.8824C163.228 12.1604 163.366 12.5188 163.366 12.9576C163.366 13.3173 163.262 13.6389 163.055 13.9224C162.851 14.2058 162.564 14.4293 162.196 14.5928C161.829 14.7563 161.401 14.8381 160.913 14.8381C160.272 14.8381 159.742 14.6991 159.322 14.4211C158.903 14.1431 158.637 13.737 158.525 13.2028L159.441 12.9739C159.528 13.3119 159.693 13.5653 159.936 13.7343C160.181 13.9033 160.501 13.9878 160.896 13.9878C161.346 13.9878 161.703 13.8924 161.968 13.7016C162.235 13.5081 162.368 13.2764 162.368 13.0066C162.368 12.7886 162.292 12.606 162.139 12.4588C161.987 12.3089 161.752 12.1972 161.436 12.1236L160.389 11.8783C159.814 11.742 159.392 11.5308 159.122 11.2446C158.855 10.9557 158.722 10.5946 158.722 10.1613C158.722 9.80696 158.821 9.49354 159.02 9.22099C159.222 8.94845 159.496 8.73451 159.842 8.57916C160.191 8.42381 160.586 8.34613 161.027 8.34613C161.649 8.34613 162.136 8.4824 162.491 8.75495C162.848 9.02749 163.101 9.38725 163.251 9.83422ZM169.446 14.7073L167.533 8.4279H168.547L169.904 13.2355H169.969L171.31 8.4279H172.341L173.665 13.2192H173.731L175.088 8.4279H176.102L174.188 14.7073H173.24L171.866 9.88327H171.768L170.395 14.7073H169.446ZM179.78 14.8381C179.175 14.8381 178.653 14.7045 178.214 14.4375C177.778 14.1676 177.442 13.7915 177.205 13.3091C176.97 12.824 176.853 12.2598 176.853 11.6166C176.853 10.9734 176.97 10.4066 177.205 9.91598C177.442 9.42268 177.772 9.03839 178.194 8.76312C178.619 8.48513 179.115 8.34613 179.682 8.34613C180.009 8.34613 180.332 8.40064 180.651 8.50966C180.97 8.61868 181.26 8.79583 181.522 9.04112C181.783 9.28368 181.992 9.60528 182.147 10.0059C182.303 10.4066 182.38 10.8999 182.38 11.4858V11.8946H177.54V11.0607H181.399C181.399 10.7064 181.328 10.3902 181.187 10.1122C181.048 9.83422 180.849 9.61482 180.59 9.45402C180.333 9.29322 180.031 9.21282 179.682 9.21282C179.298 9.21282 178.965 9.30821 178.685 9.49899C178.407 9.68704 178.193 9.93233 178.043 10.2349C177.893 10.5374 177.818 10.8617 177.818 11.2078V11.7638C177.818 12.238 177.9 12.64 178.063 12.9698C178.229 13.2969 178.46 13.5462 178.754 13.7179C179.048 13.8869 179.39 13.9714 179.78 13.9714C180.034 13.9714 180.263 13.936 180.467 13.8651C180.674 13.7915 180.853 13.6825 181.003 13.5381C181.152 13.3909 181.268 13.2083 181.35 12.9903L182.282 13.2519C182.184 13.568 182.019 13.846 181.788 14.0859C181.556 14.323 181.27 14.5083 180.929 14.6419C180.588 14.7727 180.205 14.8381 179.78 14.8381ZM186.465 14.8381C185.86 14.8381 185.338 14.7045 184.899 14.4375C184.463 14.1676 184.126 13.7915 183.889 13.3091C183.655 12.824 183.537 12.2598 183.537 11.6166C183.537 10.9734 183.655 10.4066 183.889 9.91598C184.126 9.42268 184.456 9.03839 184.878 8.76312C185.304 8.48513 185.8 8.34613 186.366 8.34613C186.694 8.34613 187.016 8.40064 187.335 8.50966C187.654 8.61868 187.944 8.79583 188.206 9.04112C188.468 9.28368 188.676 9.60528 188.832 10.0059C188.987 10.4066 189.065 10.8999 189.065 11.4858V11.8946H184.224V11.0607H188.083C188.083 10.7064 188.013 10.3902 187.871 10.1122C187.732 9.83422 187.533 9.61482 187.274 9.45402C187.018 9.29322 186.715 9.21282 186.366 9.21282C185.982 9.21282 185.65 9.30821 185.369 9.49899C185.091 9.68704 184.877 9.93233 184.727 10.2349C184.577 10.5374 184.502 10.8617 184.502 11.2078V11.7638C184.502 12.238 184.584 12.64 184.748 12.9698C184.914 13.2969 185.144 13.5462 185.438 13.7179C185.733 13.8869 186.075 13.9714 186.465 13.9714C186.718 13.9714 186.947 13.936 187.151 13.8651C187.359 13.7915 187.537 13.6825 187.687 13.5381C187.837 13.3909 187.953 13.2083 188.034 12.9903L188.967 13.2519C188.868 13.568 188.704 13.846 188.472 14.0859C188.24 14.323 187.954 14.5083 187.613 14.6419C187.273 14.7727 186.89 14.8381 186.465 14.8381ZM191.416 12.4179L191.399 11.2242H191.595L194.343 8.4279H195.536L192.609 11.3877H192.528L191.416 12.4179ZM190.516 14.7073V6.33477H191.481V14.7073H190.516ZM194.506 14.7073L192.053 11.6003L192.74 10.9298L195.733 14.7073H194.506Z" fill="black"/>
<path d="M159.413 53.9058C159.838 52.5691 161.73 52.5691 162.155 53.9058L164.896 62.5159C165.086 63.113 165.64 63.5184 166.267 63.5184L175.197 63.5184C176.584 63.5184 177.169 65.2871 176.055 66.1133L168.779 71.5094C168.285 71.8758 168.079 72.5156 168.265 73.1017L171.032 81.7948C171.456 83.1259 169.925 84.2192 168.804 83.3871L161.641 78.075C161.132 77.6974 160.436 77.6974 159.927 78.075L152.765 83.3871C151.643 84.2192 150.112 83.1259 150.536 81.7948L153.303 73.1017C153.489 72.5156 153.283 71.8758 152.789 71.5094L145.513 66.1133C144.399 65.2871 144.984 63.5184 146.371 63.5184L155.301 63.5184C155.928 63.5184 156.482 63.113 156.672 62.5159L159.413 53.9058Z" fill="#0064FF"/>
<path d="M199.491 49.3446H195.036L192.446 50.4843V55.0086L194.691 54.1797V73.2439H199.491V49.3446ZM202.798 71.5171C203.799 72.415 205.837 73.6929 209.118 73.6929C215.162 73.6929 217.441 69.9284 217.441 64.9551V56.7354C217.441 52.0039 214.955 48.8956 209.671 48.8956C204.594 48.8956 202.003 52.3493 202.003 56.7354V57.7715C202.003 62.8829 204.283 65.5422 208.911 65.5422C210.776 65.5422 212.192 64.7479 212.641 64.1262V65.0933C212.71 67.3727 211.846 69.1686 209.014 69.1686C207.184 69.1686 206.113 68.3742 205.423 67.8562L202.798 71.5171ZM209.705 61.087C207.633 61.087 206.735 59.7401 206.735 57.7715V56.7354C206.735 54.8359 207.598 53.3854 209.671 53.3854C211.777 53.3854 212.675 54.8014 212.675 56.7354V57.8751C212.641 59.7056 211.777 61.087 209.705 61.087ZM226.237 49.3446H221.782L219.191 50.4843V55.0086L221.436 54.1797V73.2439H226.237V49.3446ZM197.362 85.3708L196.495 85.6161C196.441 85.4717 196.361 85.3313 196.254 85.195C196.151 85.056 196.009 84.9416 195.829 84.8516C195.649 84.7617 195.419 84.7167 195.138 84.7167C194.754 84.7167 194.434 84.8053 194.178 84.9825C193.924 85.1569 193.797 85.379 193.797 85.6488C193.797 85.8887 193.885 86.0781 194.059 86.2171C194.233 86.3561 194.506 86.4719 194.877 86.5646L195.809 86.7935C196.37 86.9298 196.788 87.1383 197.064 87.419C197.339 87.697 197.477 88.0554 197.477 88.4942C197.477 88.8539 197.373 89.1755 197.166 89.459C196.962 89.7424 196.675 89.9659 196.307 90.1294C195.94 90.293 195.512 90.3747 195.024 90.3747C194.383 90.3747 193.853 90.2357 193.433 89.9577C193.014 89.6797 192.748 89.2736 192.636 88.7395L193.552 88.5105C193.639 88.8485 193.804 89.1019 194.047 89.2709C194.292 89.4399 194.612 89.5244 195.007 89.5244C195.457 89.5244 195.814 89.429 196.079 89.2382C196.346 89.0447 196.479 88.813 196.479 88.5432C196.479 88.3252 196.403 88.1426 196.25 87.9954C196.098 87.8455 195.863 87.7338 195.547 87.6602L194.5 87.4149C193.925 87.2786 193.503 87.0674 193.233 86.7812C192.966 86.4923 192.833 86.1312 192.833 85.6979C192.833 85.3436 192.932 85.0302 193.131 84.7576C193.333 84.4851 193.607 84.2711 193.953 84.1158C194.302 83.9604 194.697 83.8828 195.138 83.8828C195.76 83.8828 196.247 84.019 196.602 84.2916C196.959 84.5641 197.212 84.9239 197.362 85.3708ZM201.644 83.9645V84.7821H198.39V83.9645H201.644ZM199.338 82.4601H200.303V88.4451C200.303 88.7177 200.342 88.9221 200.421 89.0583C200.503 89.1919 200.607 89.2818 200.732 89.3282C200.86 89.3718 200.995 89.3936 201.137 89.3936C201.243 89.3936 201.33 89.3881 201.398 89.3772C201.467 89.3636 201.521 89.3527 201.562 89.3445L201.758 90.2112C201.693 90.2357 201.601 90.2602 201.484 90.2848C201.367 90.312 201.219 90.3257 201.039 90.3257C200.766 90.3257 200.499 90.2671 200.237 90.1499C199.978 90.0327 199.763 89.8542 199.591 89.6143C199.422 89.3745 199.338 89.072 199.338 88.7068V82.4601ZM204.927 90.3911C204.529 90.3911 204.168 90.3161 203.843 90.1662C203.519 90.0136 203.261 89.7942 203.071 89.508C202.88 89.2191 202.785 88.8703 202.785 88.4615C202.785 88.1017 202.855 87.8101 202.997 87.5866C203.139 87.3604 203.328 87.1832 203.565 87.0551C203.802 86.9271 204.064 86.8317 204.35 86.769C204.639 86.7036 204.929 86.6518 205.221 86.6136C205.603 86.5646 205.912 86.5278 206.149 86.5033C206.389 86.476 206.563 86.431 206.672 86.3683C206.784 86.3057 206.84 86.1966 206.84 86.0413V86.0086C206.84 85.6052 206.73 85.2918 206.509 85.0683C206.291 84.8448 205.96 84.7331 205.515 84.7331C205.055 84.7331 204.694 84.8339 204.432 85.0356C204.17 85.2373 203.986 85.4526 203.88 85.6815L202.964 85.3545C203.128 84.9729 203.346 84.6759 203.619 84.4633C203.894 84.248 204.194 84.0981 204.518 84.0136C204.845 83.9264 205.167 83.8828 205.483 83.8828C205.684 83.8828 205.916 83.9073 206.178 83.9563C206.442 84.0027 206.697 84.0994 206.942 84.2466C207.19 84.3938 207.396 84.6159 207.559 84.913C207.723 85.21 207.805 85.6079 207.805 86.1067V90.2439H206.84V89.3936H206.791C206.726 89.5298 206.616 89.6756 206.464 89.831C206.311 89.9863 206.108 90.1185 205.855 90.2275C205.601 90.3366 205.292 90.3911 204.927 90.3911ZM205.074 89.5244C205.455 89.5244 205.777 89.4494 206.039 89.2995C206.303 89.1496 206.502 88.9561 206.636 88.719C206.772 88.4819 206.84 88.2325 206.84 87.9709V87.0879C206.799 87.1369 206.709 87.1819 206.57 87.2228C206.434 87.2609 206.276 87.295 206.096 87.325C205.919 87.3522 205.746 87.3767 205.577 87.3986C205.41 87.4176 205.276 87.434 205.172 87.4476C204.921 87.4803 204.687 87.5335 204.469 87.607C204.254 87.6779 204.079 87.7856 203.946 87.93C203.815 88.0717 203.749 88.2652 203.749 88.5105C203.749 88.8458 203.873 89.0992 204.121 89.2709C204.372 89.4399 204.69 89.5244 205.074 89.5244ZM209.55 90.2439V83.9645H210.482V84.913H210.547C210.662 84.6023 210.869 84.3502 211.169 84.1567C211.468 83.9632 211.806 83.8664 212.182 83.8664C212.253 83.8664 212.342 83.8678 212.448 83.8705C212.554 83.8732 212.635 83.8773 212.689 83.8828V84.8639C212.657 84.8557 212.582 84.8435 212.464 84.8271C212.35 84.808 212.229 84.7985 212.101 84.7985C211.795 84.7985 211.523 84.8625 211.283 84.9906C211.046 85.116 210.858 85.2904 210.719 85.5139C210.583 85.7347 210.514 85.9868 210.514 86.2702V90.2439H209.55ZM218.265 85.3708L217.398 85.6161C217.344 85.4717 217.263 85.3313 217.157 85.195C217.053 85.056 216.912 84.9416 216.732 84.8516C216.552 84.7617 216.322 84.7167 216.041 84.7167C215.657 84.7167 215.336 84.8053 215.08 84.9825C214.827 85.1569 214.7 85.379 214.7 85.6488C214.7 85.8887 214.787 86.0781 214.962 86.2171C215.136 86.3561 215.409 86.4719 215.779 86.5646L216.711 86.7935C217.273 86.9298 217.691 87.1383 217.966 87.419C218.242 87.697 218.379 88.0554 218.379 88.4942C218.379 88.8539 218.276 89.1755 218.069 89.459C217.864 89.7424 217.578 89.9659 217.21 90.1294C216.842 90.293 216.414 90.3747 215.926 90.3747C215.286 90.3747 214.756 90.2357 214.336 89.9577C213.916 89.6797 213.651 89.2736 213.539 88.7395L214.455 88.5105C214.542 88.8485 214.707 89.1019 214.949 89.2709C215.195 89.4399 215.515 89.5244 215.91 89.5244C216.36 89.5244 216.717 89.429 216.981 89.2382C217.248 89.0447 217.382 88.813 217.382 88.5432C217.382 88.3252 217.305 88.1426 217.153 87.9954C217 87.8455 216.766 87.7338 216.45 87.6602L215.403 87.4149C214.828 87.2786 214.406 87.0674 214.136 86.7812C213.869 86.4923 213.735 86.1312 213.735 85.6979C213.735 85.3436 213.835 85.0302 214.034 84.7576C214.235 84.4851 214.509 84.2711 214.855 84.1158C215.204 83.9604 215.599 83.8828 216.041 83.8828C216.662 83.8828 217.15 84.019 217.504 84.2916C217.861 84.5641 218.115 84.9239 218.265 85.3708Z" fill="black"/>
<defs>
<linearGradient id="paint0_linear_920_35520" x1="19.4512" y1="83.4147" x2="19.4512" y2="53.555" gradientUnits="userSpaceOnUse">
<stop offset="0.536458" stop-color="#0064FF"/>
<stop offset="0.536558" stop-color="#0064FF" stop-opacity="0"/>
</linearGradient>
</defs>
</svg>
