<svg width="47" height="47" viewBox="0 0 47 47" fill="none" xmlns="http://www.w3.org/2000/svg">
<g opacity="0.6">
<circle cx="23.4385" cy="23.0371" r="22.4688" stroke="#0064FF" stroke-width="1.01363"/>
<path fill-rule="evenodd" clip-rule="evenodd" d="M26.0131 22.1323L33.7213 24.0762L37.1599 15.5347C37.3537 15.0534 37.447 14.5382 37.4342 14.0207C37.291 8.25769 29.4871 6.62654 26.8442 11.769C26.5932 12.2572 26.4483 12.7966 26.4228 13.3435L26.0131 22.1323ZM33.1698 26.5091L25.4423 24.6418L24.9363 26.2273C24.4559 27.7326 24.8386 29.3746 25.9336 30.5057L26.1622 30.7419C27.3158 31.9335 29.1105 32.2466 30.6116 31.5182C31.7077 30.9863 32.4909 29.971 32.7246 28.7792L33.1698 26.5091ZM14.1762 30.858L21.9787 29.336L21.4545 20.1433C21.425 19.6252 21.2901 19.1193 21.0582 18.6565C18.4756 13.5026 10.7197 15.3484 10.517 21.1266C10.4978 21.6752 10.5962 22.225 10.806 22.7308L14.1762 30.858ZM22.5152 31.7722L14.7279 33.3718L14.9449 35.0218C15.1509 36.5885 16.1962 37.9114 17.6684 38.4689L17.9759 38.5853C19.5269 39.1725 21.2842 38.6919 22.3325 37.3938C23.0979 36.4459 23.3745 35.1939 23.0787 34.0159L22.5152 31.7722Z" fill="#0064FF"/>
</g>
</svg>
